<svg width="140" height="43" viewBox="0 0 140 43" fill="none" xmlns="http://www.w3.org/2000/svg">
<path d="M71.0086 26.4929C70.6438 29.259 70.4614 31.402 70.4614 32.9218C70.4614 34.4417 70.9326 35.2016 71.8749 35.2016C72.8172 35.2016 73.9267 34.5025 75.2033 33.1042C76.5104 31.706 77.7262 29.791 78.8509 27.3592C79.9756 24.9275 80.6595 22.4654 80.9027 19.9728C80.9027 17.4499 79.6108 14.5774 77.0271 11.3554C77.635 10.0483 78.4254 8.87805 79.3981 7.84456C80.3707 6.78068 81.1915 6.05116 81.8602 5.656L82.8633 5.01767C83.988 5.01767 84.9455 5.83838 85.7358 7.4798C86.5565 9.09082 86.9668 10.8842 86.9668 12.86C86.9668 16.2644 85.9789 20.1856 84.0032 24.6235C82.0274 29.0614 79.5652 32.8914 76.6168 36.1135C73.6683 39.3355 70.9478 40.9466 68.4552 40.9466C66.8442 40.9466 65.5828 40.369 64.6709 39.2139C63.7894 38.0285 63.3486 36.615 63.3486 34.9736C63.3486 33.3322 63.5462 30.6421 63.9413 26.9033C61.1144 26.6297 58.7739 25.6722 56.9197 24.0308C55.0959 22.359 54.184 20.3224 54.184 17.9211C54.184 15.4893 55.3087 13.24 57.558 11.173C59.8378 9.07563 62.4367 8.02694 65.3548 8.02694C69.8231 8.02694 72.0573 10.8082 72.0573 16.3708C72.0573 17.7691 71.9509 19.1977 71.7381 20.6568L71.4189 23.3469C72.9388 22.9821 74.1546 22.5414 75.0665 22.0246L75.5681 21.751C76.2064 22.3894 76.5408 23.3621 76.5712 24.6691C74.6866 25.5506 72.8324 26.1586 71.0086 26.4929ZM64.9444 16.4164C64.9444 14.8358 64.7772 13.7111 64.4429 13.0424C64.1085 12.3433 63.4398 11.9937 62.4367 11.9937C61.464 11.9937 60.3089 12.5712 58.9715 13.7263C57.6644 14.851 57.0109 16.2644 57.0109 17.9667C57.0109 19.6385 57.71 21.0519 59.1083 22.207C60.5369 23.3317 62.2543 23.894 64.2605 23.894C64.7165 20.4896 64.9444 17.9971 64.9444 16.4164ZM96.6369 23.0277C96.6369 24.3044 96.2265 26.5081 95.4058 29.639C94.5851 32.7394 94.1748 34.776 94.1748 35.7487C94.1748 36.691 94.3115 37.1622 94.5851 37.1622C94.7675 37.1622 95.4666 36.8734 96.6825 36.2959L97.2296 36.0223L98.0047 37.6181C97.7312 37.8613 97.3664 38.1653 96.9105 38.53C96.4545 38.8948 95.6034 39.3963 94.3571 40.0347C93.1109 40.6426 91.9558 40.9466 90.8919 40.9466C89.828 40.9466 88.9921 40.6274 88.3842 39.9891C87.7763 39.3203 87.4723 38.4388 87.4723 37.3445C87.4723 36.2199 87.8523 34.2441 88.6122 31.4172C89.3721 28.5599 89.752 26.7057 89.752 25.8546C89.752 24.5779 89.3569 23.3773 88.5666 22.2526L88.1562 21.7054L88.2018 21.1127C89.8128 20.6568 92.427 20.4288 96.0442 20.4288C96.4393 20.8847 96.6369 21.751 96.6369 23.0277ZM91.4391 15.4589C90.8311 14.851 90.5272 14.0455 90.5272 13.0424C90.5272 12.0393 90.9375 11.1578 91.7582 10.3979C92.6093 9.63796 93.582 9.25801 94.6763 9.25801C95.7706 9.25801 96.6217 9.56197 97.2296 10.1699C97.8376 10.7778 98.1415 11.5834 98.1415 12.5864C98.1415 13.5591 97.7008 14.4254 96.8193 15.1854C95.9682 15.9453 95.0107 16.3252 93.9468 16.3252C92.8829 16.3252 92.047 16.0365 91.4391 15.4589ZM114.622 34.4265C114.622 36.3415 113.771 37.9069 112.069 39.1228C110.397 40.3386 108.482 40.9466 106.324 40.9466C104.166 40.9466 102.448 40.4906 101.172 39.5787C99.9256 38.6668 99.3024 37.8613 99.3024 37.1622C99.3024 36.7366 99.8344 36.0527 100.898 35.1104C101.962 34.1377 102.859 33.545 103.588 33.3322C105.108 34.4569 106.354 36.2351 107.327 38.6668C108.452 38.5756 109.014 38.0437 109.014 37.071C109.014 35.6727 107.783 33.6969 105.321 31.1436C102.859 28.5599 101.628 26.5081 101.628 24.9883C101.628 23.4685 102.312 22.2982 103.68 21.4775C105.047 20.6264 106.689 20.2008 108.604 20.2008C110.549 20.2008 112.008 20.5504 112.981 21.2495C113.954 21.9182 114.44 22.8453 114.44 24.0308C114.44 25.1859 113.513 26.7969 111.659 28.8639C111.871 29.0766 112.145 29.3654 112.479 29.7302C112.814 30.0645 113.255 30.7181 113.802 31.6908C114.349 32.6635 114.622 33.5754 114.622 34.4265ZM110.245 27.268C111.522 26.1738 112.16 25.0947 112.16 24.0308C112.16 22.9669 111.431 22.435 109.972 22.435C109.273 22.435 108.695 22.587 108.239 22.8909C107.783 23.1645 107.555 23.4837 107.555 23.8484C107.555 24.5171 108.224 25.4594 109.561 26.6753L110.245 27.268ZM131.24 21.5231C131.301 21.4623 131.468 21.0671 131.742 20.3376C133.171 20.3376 135.086 20.7632 137.487 21.6143C136.727 24.1372 136.119 26.7817 135.663 29.5478C135.207 32.2835 134.979 34.2441 134.979 35.4296C134.979 36.5846 135.101 37.1622 135.344 37.1622C135.526 37.1622 136.195 36.8734 137.35 36.2959L137.897 36.0223L138.718 37.6181C138.444 37.8613 138.08 38.1653 137.624 38.53C137.198 38.8948 136.377 39.3963 135.161 40.0347C133.946 40.6426 132.851 40.9466 131.879 40.9466C129.994 40.9466 128.9 40.0954 128.596 38.3932C126.65 40.0954 124.887 40.9466 123.307 40.9466C121.757 40.9466 120.434 40.3386 119.34 39.1228C118.276 37.9069 117.744 35.9919 117.744 33.3778C117.744 29.3046 118.58 26.0978 120.252 23.7572C121.924 21.3863 123.945 20.2008 126.316 20.2008C128.018 20.2008 129.66 20.6416 131.24 21.5231ZM126.042 37.071C126.772 37.071 127.593 36.7822 128.505 36.2047C128.717 31.9187 129.432 27.6784 130.648 23.4837C129.736 23.0885 128.961 22.8909 128.322 22.8909C127.228 22.8909 126.286 23.97 125.495 26.1282C124.735 28.2559 124.355 30.6117 124.355 33.1954C124.355 35.7791 124.918 37.071 126.042 37.071Z" fill="black"/>
<path fill-rule="evenodd" clip-rule="evenodd" d="M110.826 13.6715V10.4718H109.953L114.316 3.78154H121.298V6.39948H122.17V2.90889H121.879V1.74536H123.625V2.90889H123.334V3.78154H127.406L131.478 10.4718H130.024V13.6715H110.826ZM124.788 6.98121L122.752 9.59915V12.508H124.497V9.89003L126.825 6.98121H124.788ZM126.242 11.6354V9.89007H127.988V11.6354H126.242ZM114.898 4.94508L111.699 9.5992V13.3807H118.098V9.5992L114.898 4.94508Z" fill="black"/>
<path d="M115.879 9.30835H113.444V11.599H115.879V9.30835Z" fill="black"/>
<path d="M132.933 12.2472V14.5743H132.061V12.5381C130.986 12.7545 130.643 12.2404 130.606 11.9564V11.0837H132.933L130.315 7.30224C130.548 6.83683 131.382 6.91439 131.77 7.01134C132.061 6.6235 132.875 6.02234 133.806 6.72046C134.737 7.41858 134.582 8.3688 134.388 8.75664C134.776 8.8536 135.493 9.39658 135.26 10.7928C135.028 12.1891 133.612 12.3442 132.933 12.2472Z" fill="black"/>
<path fill-rule="evenodd" clip-rule="evenodd" d="M107.918 11.9264C107.918 11.9432 107.917 11.9599 107.916 11.9765C108.008 11.9441 108.106 11.9264 108.208 11.9264C108.69 11.9264 109.081 12.3171 109.081 12.799C109.081 13.281 108.69 13.6717 108.208 13.6717C108.106 13.6717 108.008 13.654 107.916 13.6216C107.917 13.6382 107.917 13.6549 107.917 13.6717C107.917 14.3143 107.397 14.8352 106.754 14.8352C106.358 14.8352 106.008 14.6373 105.798 14.335C105.658 14.6306 105.357 14.8352 105.008 14.8352C104.526 14.8352 104.136 14.4445 104.136 13.9625C104.136 13.664 104.286 13.4005 104.514 13.2432C104.458 13.1063 104.426 12.9563 104.426 12.799C104.426 12.1564 104.947 11.6355 105.59 11.6355C105.806 11.6355 106.008 11.6944 106.182 11.797C106.244 11.3764 106.607 11.0537 107.045 11.0537C107.527 11.0537 107.918 11.4444 107.918 11.9264Z" fill="black"/>
<path d="M104.929 14.8026C103.64 15.3539 102.388 15.9985 102.388 15.9985C101.511 16.4505 100.733 16.8904 100.063 17.2958C104.893 15.1533 111.306 14.224 119.841 14.224C128.376 14.224 135.993 15.4522 139.86 17.3495C139.025 16.8063 138.072 16.2468 137.003 15.7076C135.869 15.136 134.795 14.684 133.816 14.3232C129.387 12.6368 123.84 12.2294 119.839 12.2173C111.664 12.1929 106.164 14.2756 104.929 14.8026Z" fill="url(#paint0_linear_525_3023)"/>
<path d="M44.7815 14.8135C43.6374 18.1667 36.8027 35.0986 16.4233 31.247V33.4182L8.39154 28.2488L16.4233 23.0869V26.5835C16.4233 26.5835 28.45 28.8681 35.8625 23.2077C40.2578 19.8621 41.2245 13.7864 38.3962 9.04747C34.6994 2.83583 27.1775 0 21.1358 0C9.60367 0 0.227678 9.23627 0.00488945 20.7155C-0.217899 32.5648 7.17565 42.2693 21.6078 42.2693C42.2478 42.2693 47.0472 22.4903 48.788 16.7695L44.7815 14.8135ZM21.1358 8.95306C25.9541 8.95306 29.8736 12.8726 29.8736 17.6909C29.8736 18.4046 29.7868 19.1145 29.6244 19.7942H12.6623C12.4924 19.1145 12.4055 18.4046 12.4055 17.6909C12.4055 12.8726 16.3175 8.95306 21.1358 8.95306Z" fill="url(#paint1_linear_525_3023)"/>
<path style="mix-blend-mode:multiply" opacity="0.42" d="M35.987 27.9392C28.8352 35.2081 19.3497 39.2334 12.296 40.6419C8.60297 39.1957 5.72183 36.8545 3.68652 33.9092C4.29825 33.0369 4.88354 32.3459 5.22716 32.142C5.92196 31.7228 9.34685 31.1224 12.4206 30.843L16.4232 33.4183V31.247C24.217 32.7197 30.0322 31.1526 34.3029 28.4679C34.8769 28.3017 35.4433 28.128 35.987 27.9392Z" fill="url(#paint2_linear_525_3023)"/>
<path d="M51.6501 18.1554L48.7879 16.7696L44.7815 14.8136L41.8701 13.4013L49.4449 10.2559L51.6501 18.1554Z" fill="url(#paint3_linear_525_3023)"/>
<path style="mix-blend-mode:multiply" opacity="0.42" d="M39.9408 13.6881V13.6957C39.6538 17.1999 36.7576 19.794 33.7556 19.794H29.6246C29.7869 19.1143 29.8738 18.4044 29.8738 17.6907C29.8738 14.6548 28.3181 11.9738 25.958 10.4105L31.6599 2.71484C34.3522 4.19129 36.75 6.28323 38.3964 9.04731C39.2649 10.5049 39.7784 12.0946 39.9408 13.6881Z" fill="url(#paint4_linear_525_3023)"/>
<defs>
<linearGradient id="paint0_linear_525_3023" x1="100.063" y1="14.7833" x2="139.86" y2="14.7833" gradientUnits="userSpaceOnUse">
<stop stop-color="#00F260"/>
<stop offset="1" stop-color="#0575E6"/>
</linearGradient>
<linearGradient id="paint1_linear_525_3023" x1="0" y1="21.1347" x2="48.788" y2="21.1347" gradientUnits="userSpaceOnUse">
<stop stop-color="#00F260"/>
<stop offset="1" stop-color="#0575E6"/>
</linearGradient>
<linearGradient id="paint2_linear_525_3023" x1="23.9791" y1="38.127" x2="19.0514" y2="29.5591" gradientUnits="userSpaceOnUse">
<stop stop-color="#22039A"/>
<stop offset="1" stop-color="#26C2BF" stop-opacity="0"/>
</linearGradient>
<linearGradient id="paint3_linear_525_3023" x1="49.6794" y1="9.11286" x2="46.8377" y2="15.874" gradientUnits="userSpaceOnUse">
<stop stop-color="#00F260"/>
<stop offset="1" stop-color="#0575E6"/>
</linearGradient>
<linearGradient id="paint4_linear_525_3023" x1="34.4882" y1="18.3742" x2="32.3622" y2="9.34562" gradientUnits="userSpaceOnUse">
<stop stop-color="#22039A"/>
<stop offset="1" stop-color="#26C2BF" stop-opacity="0"/>
</linearGradient>
</defs>
</svg>
