<svg width="64" height="71" viewBox="0 0 64 71" fill="none" xmlns="http://www.w3.org/2000/svg">
<path d="M13.064 0.142534L13.0886 0.0599528L13.1699 0.0227012C13.2632 -0.0199361 13.3647 0.0056461 13.4427 0.0330237C14.3251 0.34091 19.482 3.55935 24.9988 8.08519C30.074 12.2484 36.9211 18.7032 41.1085 26.1131C43.56 30.4509 44.5061 34.3596 43.9262 37.7567C43.3104 41.3656 41.122 43.5145 39.3824 44.6886L37.7869 45.7654L39.075 44.3529C44.6923 38.9254 43.7363 31.2341 35.0163 22.0294C31.2207 18.0228 25.6738 13.2708 18.2967 7.48109C19.188 14.966 23.4329 20.9706 31.1359 25.7325L32.1498 26.3595L30.9954 26.1315C27.0378 25.3506 23.397 23.5603 20.1853 20.7992C18.623 25.3982 19.2971 29.6247 22.2934 34.0136C25.0859 34.0378 27.4583 34.5517 29.3581 35.5387C31.4554 36.6279 33.064 38.3348 34.1483 40.6134L34.9212 42.2377L33.7646 40.8271C30.609 36.978 27.9161 35.9287 21.6911 36.1684L21.6399 36.1702L21.591 36.1518C20.8078 35.8569 19.1907 33.3565 18.0601 30.6892C16.8591 27.8554 15.1747 22.5033 17.4044 18.5924L17.4255 18.5551L17.4556 18.5331C17.4794 18.4959 17.5543 18.2724 17.1957 17.1288C16.9368 16.3025 16.5279 15.2182 16.0544 13.962C14.3808 9.52095 12.0837 3.42471 13.0635 0.142534H13.064Z" fill="url(#paint0_linear_6_80)"/>
<path d="M24.905 32.3638C23.5653 30.9087 21.7261 28.911 21.5928 27.4897L21.5896 27.4537L21.6152 27.4268C21.6448 27.3958 21.6879 27.3896 21.7225 27.3882C22.1116 27.3698 24.6065 27.8088 27.4448 28.697C30.0556 29.5138 33.7089 30.9401 36.4835 33.1501C38.1078 34.444 39.083 35.8071 39.3891 37.2101C39.7141 38.701 39.2038 39.8729 38.715 40.5982L38.2666 41.2633L38.544 40.5165C39.868 37.5426 38.2985 34.7191 33.4922 32.5227C31.4002 31.5667 28.5153 30.5954 24.7605 29.5093" fill="url(#paint1_linear_6_80)"/>
<path d="M38.8138 35.3062C38.4498 34.2156 37.821 32.8297 36.9377 31.0869L38.8138 35.3062Z" fill="url(#paint2_linear_6_80)"/>
<path d="M35.944 32.1129C36.019 31.1268 36.1222 29.7736 36.5962 29.24L36.6083 29.2265H36.6271C36.6487 29.2265 36.6653 29.2404 36.6778 29.2526C36.8174 29.3886 37.5077 30.4504 38.1508 31.7906C38.7424 33.0235 39.4668 34.8452 39.605 36.6131C39.6858 37.6481 39.1288 39.7777 39.1118 39.0596C38.9394 31.8588 35.9445 32.1124 35.9445 32.1124L35.944 32.1129Z" fill="url(#paint3_linear_6_80)"/>
<path d="M7.76122 69.5767C4.0042 70.1373 0.349061 70.4635 0.044765 69.9761C-0.236192 69.5264 0.866093 64.4387 1.6569 60.9949C1.74801 60.5982 1.95177 60.2638 2.22645 60.0057C2.31621 59.9218 2.41315 59.8455 2.51638 59.7782C2.51638 59.7782 2.51728 59.7777 2.51773 59.7773C2.54241 59.7611 2.56755 59.7454 2.59268 59.7306C2.59627 59.7284 2.60031 59.7261 2.6039 59.7239C2.62589 59.7109 2.64833 59.6983 2.67077 59.6862C2.67661 59.683 2.68289 59.6799 2.68873 59.6768C2.70937 59.666 2.72957 59.6552 2.75066 59.6449C2.75829 59.6413 2.76637 59.6373 2.774 59.6337C2.79285 59.6247 2.81215 59.6157 2.83145 59.6072C2.84087 59.6031 2.85075 59.5991 2.86017 59.5946C2.87813 59.587 2.89608 59.5794 2.91448 59.5722C2.92525 59.5677 2.93647 59.5637 2.94724 59.5596C2.9643 59.5533 2.9809 59.547 2.99841 59.5408C3.01098 59.5363 3.02309 59.5322 3.03566 59.5277C3.05137 59.5224 3.06753 59.5174 3.08368 59.5125C3.0976 59.5084 3.11106 59.504 3.12497 59.4999C3.13978 59.4954 3.1546 59.4914 3.16941 59.4878C3.18467 59.4838 3.19993 59.4797 3.21518 59.4761C3.22865 59.473 3.24211 59.4698 3.25603 59.4667C3.27263 59.4631 3.28924 59.4591 3.30629 59.4555C3.31841 59.4528 3.33053 59.451 3.34265 59.4483C3.36105 59.4447 3.37945 59.4416 3.39785 59.4384C3.40817 59.4366 3.41805 59.4353 3.42837 59.4339C3.44902 59.4308 3.46921 59.4277 3.48986 59.4254C3.49704 59.4245 3.50422 59.4241 3.5114 59.4232C3.53519 59.4205 3.55898 59.4178 3.58276 59.416C3.58366 59.416 3.58501 59.416 3.58591 59.416C3.6447 59.4111 3.70394 59.4084 3.76364 59.4079C4.21065 59.4043 4.66934 59.5277 5.07731 59.7993C5.21241 59.889 5.3484 59.9784 5.48529 60.0663C8.94968 62.2983 12.7493 63.853 16.7662 64.6958C18.6369 65.0881 20.5098 65.3161 22.3719 65.3812C20.5704 66.2474 11.924 68.9542 7.76257 69.5767H7.76122Z" fill="url(#paint4_linear_6_80)"/>
<path d="M24.9436 63.9405C22.3616 64.0585 19.7185 63.8444 17.0723 63.2839C11.7005 62.1452 6.77474 59.6776 2.73183 56.1333L3.09716 54.2515C3.71248 51.0824 5.30622 48.0112 7.52381 45.3515C8.38957 44.3129 10.1144 44.3892 10.972 45.496C11.2885 45.9044 11.6161 46.3066 11.9545 46.702C14.5594 49.7454 17.6881 52.2605 21.2391 54.177C24.5298 55.9529 28.0198 57.1261 31.6166 57.6764C29.8451 60.1058 27.5445 62.27 24.9441 63.9405H24.9436Z" fill="url(#paint5_linear_6_80)"/>
<path d="M32.4864 56.3937C28.882 55.9211 25.3085 54.7672 21.9424 52.9432C17.9605 50.7853 14.559 47.8483 11.9383 44.3484C11.0681 43.1865 11.3051 41.6367 12.463 40.8293C15.4499 38.7463 18.8568 37.3339 22.2902 36.9264C22.2943 36.9259 22.2988 36.9255 22.3028 36.925C23.8413 40.1417 25.9332 43.068 28.5216 45.6271C30.4752 47.5592 32.6385 49.2091 34.9755 50.5564C34.5096 52.5702 33.6502 54.545 32.4868 56.3937H32.4864Z" fill="url(#paint6_linear_6_80)"/>
<path d="M35.2403 49.1059C30.3792 46.1738 26.3771 41.8822 23.849 36.8129C31.3617 36.6186 36.2174 41.8122 35.2403 49.1059Z" fill="url(#paint7_linear_6_80)"/>
<path d="M43.5429 50.4277C42.0282 56.5392 40.8491 55.4162 40.8491 55.4162C39.0471 57.4417 37.3327 56.2577 37.3327 56.2577C38.8165 56.5284 40.079 54.7125 40.079 54.7125C39.9708 53.8126 41.5802 51.5335 42.0757 50.8572C42.1345 50.7773 42.1058 50.666 42.0196 50.6072C41.289 50.1121 40.5004 46.5427 39.2514 45.2223C40.408 44.7892 41.3262 43.2982 41.3262 43.2982C42.6803 45.8224 42.3361 49.3415 43.4792 50.2477C43.5344 50.2912 43.5595 50.3621 43.5434 50.4277H43.5429Z" fill="url(#paint8_linear_6_80)"/>
<path d="M48.2707 50.2571C47.6908 52.7157 45.6972 52.4343 45.6972 52.4343C47.0728 52.0434 47.2945 49.9847 47.2945 49.9847C46.7847 49.2693 47.0841 46.6621 47.1877 45.8794C47.1998 45.7865 47.124 45.7039 47.0235 45.6904C46.1734 45.5755 43.9459 42.8885 42.2629 42.2835C43.3311 41.6708 43.4033 40.0322 43.4033 40.0322C45.7421 41.6291 46.7003 44.4791 48.0921 44.7713C48.159 44.7852 48.2133 44.8354 48.2303 44.8978C49.785 50.7126 48.2707 50.2576 48.2707 50.2576V50.2571Z" fill="url(#paint9_linear_6_80)"/>
<path d="M63.1457 25.3488C61.8384 22.4894 58.1285 21.1991 58.1285 21.1991C57.7761 20.4891 56.4153 22.2004 55.2251 24.221C54.1394 26.0638 53.2018 28.2042 53.2018 28.2042C53.2018 28.2042 53.4087 27.4587 53.7391 26.4471C52.5089 25.0077 50.7244 24.0212 48.7424 23.8713C45.8615 23.6537 43.4136 25.2663 42.4976 27.7289C44.2781 31.31 44.8624 34.3637 44.6326 36.9076C45.8399 38.5902 47.3807 39.8338 49.0332 39.9155C52.7086 40.0973 55.537 34.4678 55.463 30.8661C55.4396 29.7275 55.1236 28.6382 54.5887 27.6719C55.0613 27.32 55.5711 26.9179 56.2672 26.4529C57.2263 25.8125 58.1881 25.3488 58.6096 25.0544C58.7613 24.9485 58.9848 25.0163 59.0759 25.1953C59.7814 26.5772 62.3626 31.5043 62.1283 29.1337C61.8577 26.395 59.202 24.2434 59.202 24.2434C59.1136 23.559 57.5351 24.5589 56.0074 25.8623C55.4347 26.351 54.8683 26.8878 54.3993 27.3519C54.3252 27.2325 54.2485 27.1149 54.1672 27C54.6093 26.3672 55.0496 25.6576 55.73 24.7591C56.5437 23.6842 57.4265 22.8009 57.7793 22.3144C57.9063 22.1394 58.1765 22.125 58.3439 22.2834C59.6315 23.5056 64.2727 27.8155 63.1444 25.3479L63.1457 25.3488ZM52.5932 31.796C52.4572 33.3507 51.2715 35.2667 50.1319 35.0823C48.9884 34.8973 48.3304 32.6699 48.4704 31.1053C48.6105 29.5439 49.6495 28.4389 50.7881 28.6346C51.9223 28.8298 52.7292 30.2436 52.5932 31.7956V31.796Z" fill="url(#paint10_linear_6_80)"/>
<path d="M52.5932 31.7961C52.4573 33.3507 51.2715 35.2667 50.1319 35.0823C48.9884 34.8974 48.3304 32.6699 48.4704 31.1053C48.6105 29.5439 49.6495 28.4389 50.7881 28.6346C51.9223 28.8298 52.7292 30.2436 52.5932 31.7956V31.7961Z" fill="url(#paint11_radial_6_80)"/>
<path d="M54.5891 27.6724C55.0617 27.3205 55.5716 26.9184 56.2677 26.4534C57.2268 25.8129 58.1886 25.3493 58.61 25.0549C58.7617 24.949 58.9852 25.0167 59.0764 25.1958C59.7819 26.5777 62.363 31.5048 62.1287 29.1341C61.8581 26.3955 59.2025 24.2439 59.2025 24.2439C59.1141 23.5594 57.5356 24.5594 56.0078 25.8627C55.4351 26.3515 54.8687 26.8883 54.3997 27.3524C54.3257 27.233 54.2489 27.1154 54.1677 27.0005C54.6098 26.3677 55.0501 25.6581 55.7305 24.7596C56.5442 23.6846 57.427 22.8014 57.7797 22.3149C57.9067 22.1398 58.1769 22.1255 58.3443 22.2839C59.632 23.506 64.2732 27.816 63.1449 25.3484C61.8375 22.489 58.1276 21.1987 58.1276 21.1987C57.7752 20.4886 56.4144 22.2 55.2242 24.2205C54.1385 26.0634 53.2009 28.2038 53.2009 28.2038C53.2009 28.2038 54.2579 28.6831 54.5878 27.6715" fill="url(#paint12_linear_6_80)"/>
<defs>
<linearGradient id="paint0_linear_6_80" x1="12.8288" y1="22.883" x2="44.0918" y2="22.883" gradientUnits="userSpaceOnUse">
<stop stop-color="#6F6452"/>
<stop offset="0.03" stop-color="#817767"/>
<stop offset="0.09" stop-color="#9C9488"/>
<stop offset="0.14" stop-color="#B0A99F"/>
<stop offset="0.19" stop-color="#BCB6AE"/>
<stop offset="0.24" stop-color="#C1BBB3"/>
<stop offset="0.28" stop-color="#C3BEB6"/>
<stop offset="0.31" stop-color="#CCC8BF"/>
<stop offset="0.34" stop-color="#DCD9D0"/>
<stop offset="0.37" stop-color="#F2F1E8"/>
<stop offset="0.56" stop-color="#D0D2C7"/>
<stop offset="0.99" stop-color="#F2F1E8"/>
</linearGradient>
<linearGradient id="paint1_linear_6_80" x1="25.0513" y1="36.3121" x2="37.1329" y2="31.4333" gradientUnits="userSpaceOnUse">
<stop stop-color="#6F6452"/>
<stop offset="0.03" stop-color="#817767"/>
<stop offset="0.09" stop-color="#9C9488"/>
<stop offset="0.14" stop-color="#B0A99F"/>
<stop offset="0.19" stop-color="#BCB6AE"/>
<stop offset="0.24" stop-color="#C1BBB3"/>
<stop offset="0.28" stop-color="#C3BEB6"/>
<stop offset="0.31" stop-color="#CCC8BF"/>
<stop offset="0.34" stop-color="#DCD9D0"/>
<stop offset="0.37" stop-color="#F2F1E8"/>
<stop offset="0.56" stop-color="#D0D2C7"/>
<stop offset="0.99" stop-color="#F2F1E8"/>
</linearGradient>
<linearGradient id="paint2_linear_6_80" x1="36.3008" y1="32.4588" x2="39.4581" y2="33.931" gradientUnits="userSpaceOnUse">
<stop stop-color="#231F20"/>
<stop offset="0.5" stop-color="#231F20"/>
<stop offset="1" stop-color="#231F20"/>
</linearGradient>
<linearGradient id="paint3_linear_6_80" x1="34.8805" y1="32.8091" x2="40.8563" y2="35.5957" gradientUnits="userSpaceOnUse">
<stop stop-color="#6F6452"/>
<stop offset="0.03" stop-color="#817767"/>
<stop offset="0.09" stop-color="#9C9488"/>
<stop offset="0.14" stop-color="#B0A99F"/>
<stop offset="0.19" stop-color="#BCB6AE"/>
<stop offset="0.24" stop-color="#C1BBB3"/>
<stop offset="0.28" stop-color="#C3BEB6"/>
<stop offset="0.31" stop-color="#CCC8BF"/>
<stop offset="0.34" stop-color="#DCD9D0"/>
<stop offset="0.37" stop-color="#F2F1E8"/>
<stop offset="0.56" stop-color="#D0D2C7"/>
<stop offset="0.99" stop-color="#F2F1E8"/>
</linearGradient>
<linearGradient id="paint4_linear_6_80" x1="-0.000116426" y1="64.8107" x2="22.3706" y2="64.8107" gradientUnits="userSpaceOnUse">
<stop stop-color="#F7941D"/>
<stop offset="0.5" stop-color="#FFCA05"/>
<stop offset="1" stop-color="#FAAC18"/>
</linearGradient>
<linearGradient id="paint5_linear_6_80" x1="2.73228" y1="54.2946" x2="31.6166" y2="54.2946" gradientUnits="userSpaceOnUse">
<stop stop-color="#6F6452"/>
<stop offset="0.03" stop-color="#817767"/>
<stop offset="0.09" stop-color="#9C9488"/>
<stop offset="0.14" stop-color="#B0A99F"/>
<stop offset="0.19" stop-color="#BCB6AE"/>
<stop offset="0.24" stop-color="#C1BBB3"/>
<stop offset="0.28" stop-color="#C3BEB6"/>
<stop offset="0.31" stop-color="#CCC8BF"/>
<stop offset="0.34" stop-color="#DCD9D0"/>
<stop offset="0.37" stop-color="#F2F1E8"/>
<stop offset="0.56" stop-color="#D0D2C7"/>
<stop offset="0.99" stop-color="#F2F1E8"/>
</linearGradient>
<linearGradient id="paint6_linear_6_80" x1="11.4137" y1="46.6594" x2="34.9751" y2="46.6594" gradientUnits="userSpaceOnUse">
<stop stop-color="#F7941D"/>
<stop offset="0.5" stop-color="#FFCA05"/>
<stop offset="1" stop-color="#FAAC18"/>
</linearGradient>
<linearGradient id="paint7_linear_6_80" x1="23.849" y1="42.9567" x2="35.3651" y2="42.9567" gradientUnits="userSpaceOnUse">
<stop stop-color="#6F6452"/>
<stop offset="0.03" stop-color="#817767"/>
<stop offset="0.09" stop-color="#9C9488"/>
<stop offset="0.14" stop-color="#B0A99F"/>
<stop offset="0.19" stop-color="#BCB6AE"/>
<stop offset="0.24" stop-color="#C1BBB3"/>
<stop offset="0.28" stop-color="#C3BEB6"/>
<stop offset="0.31" stop-color="#CCC8BF"/>
<stop offset="0.34" stop-color="#DCD9D0"/>
<stop offset="0.37" stop-color="#F2F1E8"/>
<stop offset="0.56" stop-color="#D0D2C7"/>
<stop offset="0.99" stop-color="#F2F1E8"/>
</linearGradient>
<linearGradient id="paint8_linear_6_80" x1="37.3327" y1="49.9497" x2="43.5479" y2="49.9497" gradientUnits="userSpaceOnUse">
<stop stop-color="#F7941D"/>
<stop offset="0.5" stop-color="#FFCA05"/>
<stop offset="1" stop-color="#FAAC18"/>
</linearGradient>
<linearGradient id="paint9_linear_6_80" x1="42.2629" y1="46.238" x2="48.9318" y2="46.238" gradientUnits="userSpaceOnUse">
<stop stop-color="#F7941D"/>
<stop offset="0.5" stop-color="#FFCA05"/>
<stop offset="1" stop-color="#FAAC18"/>
</linearGradient>
<linearGradient id="paint10_linear_6_80" x1="42.4981" y1="30.4779" x2="63.3208" y2="30.4779" gradientUnits="userSpaceOnUse">
<stop stop-color="#F7941D"/>
<stop offset="0.5" stop-color="#FFCA05"/>
<stop offset="1" stop-color="#FAAC18"/>
</linearGradient>
<radialGradient id="paint11_radial_6_80" cx="0" cy="0" r="1" gradientUnits="userSpaceOnUse" gradientTransform="translate(50.53 31.8535) scale(2.7225)">
<stop stop-color="#231F20"/>
<stop offset="0.41" stop-color="#231F20"/>
<stop offset="1" stop-color="#231F20"/>
</radialGradient>
<linearGradient id="paint12_linear_6_80" x1="53.2018" y1="25.4027" x2="63.3208" y2="25.4027" gradientUnits="userSpaceOnUse">
<stop stop-color="#F7941D"/>
<stop offset="0.5" stop-color="#FFCA05"/>
<stop offset="1" stop-color="#FAAC18"/>
</linearGradient>
</defs>
</svg>
