<svg width="161" height="81" viewBox="0 0 161 81" fill="none" xmlns="http://www.w3.org/2000/svg">
<path d="M115.001 25.141C114.967 25.2744 114.976 25.3744 115.026 25.4411L115.201 25.6912C115.167 25.7579 115.134 25.8245 115.101 25.8912C115.067 25.9412 115.034 25.9996 115.001 26.0663C114.934 26.183 114.901 26.3247 114.901 26.4914C114.717 26.7081 114.567 26.9415 114.45 27.1915C114.334 27.4416 114.184 27.675 114 27.8917C113.8 28.1751 113.609 28.4585 113.425 28.7419C113.242 29.0086 113.067 29.2753 112.9 29.5421C112.583 30.0589 112.233 30.559 111.85 31.0424C111.7 31.2425 111.608 31.3925 111.575 31.4925C111.525 31.6259 111.45 31.7426 111.35 31.8426C111.083 32.1427 110.916 32.3677 110.85 32.5178C110.783 32.6678 110.716 32.8262 110.65 32.9929C110.483 33.3263 110.299 33.6264 110.099 33.8931L109.874 34.2932C109.808 34.4099 109.733 34.5599 109.649 34.7433C109.483 35.01 109.333 35.2601 109.199 35.4935C109.083 35.7102 108.932 35.9603 108.749 36.2437C108.682 36.4104 108.607 36.5354 108.524 36.6188C108.424 36.7188 108.366 36.8438 108.349 36.9938C108.149 37.2606 107.949 37.519 107.749 37.769C107.549 38.0191 107.382 38.2942 107.249 38.5942C107.115 38.9943 106.99 39.3611 106.874 39.6945C106.774 40.0279 106.599 40.3446 106.349 40.6447C106.249 40.8281 106.148 40.9948 106.048 41.1448C105.948 41.2949 105.857 41.4366 105.773 41.5699C105.69 41.6866 105.598 41.8117 105.498 41.945C105.415 42.0784 105.332 42.2117 105.248 42.3451C105.082 42.6118 104.94 42.8036 104.823 42.9202C104.706 43.0369 104.581 43.2287 104.448 43.4954C104.181 43.8621 103.931 44.2372 103.698 44.6206C103.481 44.9874 103.231 45.3625 102.948 45.7459C102.748 46.0627 102.598 46.3294 102.498 46.5461C102.381 46.7962 102.214 47.0462 101.998 47.2963C101.864 47.7297 101.614 48.0965 101.247 48.3965C100.881 49.13 100.547 49.8802 100.247 50.6471C99.947 51.4139 99.647 52.1974 99.3469 52.9976C99.1969 53.1977 99.1135 53.3811 99.0968 53.5478C98.8801 53.9145 98.7551 54.1396 98.7217 54.2229C98.6884 54.3229 98.6467 54.398 98.5967 54.448C98.3633 54.7647 98.1466 55.0815 97.9466 55.3982C97.8632 55.5316 97.7798 55.6649 97.6965 55.7983C97.6131 55.915 97.5298 56.0317 97.4464 56.1484C97.2797 56.3484 97.1214 56.5401 96.9713 56.7235C96.8213 56.9069 96.7129 57.1319 96.6462 57.3987C96.3795 57.7654 96.1211 58.1322 95.8711 58.4989C95.621 58.8657 95.4126 59.2825 95.2459 59.7492C94.9959 60.0493 94.8125 60.3494 94.6958 60.6494C94.3957 60.9495 94.179 61.2663 94.0456 61.5997C93.4788 62.1665 92.9204 62.7166 92.3702 63.2501C91.8201 63.7835 91.2116 64.2836 90.5448 64.7504C90.4614 64.7671 90.3781 64.7838 90.2947 64.8004C90.2114 64.8171 90.128 64.8421 90.0447 64.8754C89.8946 64.9255 89.7113 64.9338 89.4946 64.9004C89.2945 64.8838 89.1028 64.8171 88.9194 64.7004C88.7527 64.6004 88.561 64.567 88.3443 64.6004C88.1109 64.467 87.8775 64.1836 87.6441 63.7502C87.5774 63.4668 87.5274 63.2417 87.4941 63.075C87.4607 62.8916 87.4107 62.6999 87.344 62.4999C87.2607 62.2832 87.1857 62.0831 87.119 61.8997C87.069 61.7164 87.0273 61.5497 86.994 61.3996C86.9273 61.0662 86.9356 60.6911 87.019 60.2744L87.294 58.9991C87.4274 58.5323 87.5524 58.0572 87.6691 57.5737C87.7858 57.0903 87.8775 56.6152 87.9442 56.1484C88.0442 55.5149 88.1692 54.8481 88.3193 54.1479C88.4693 53.4477 88.5943 52.8143 88.6944 52.2475C88.7944 51.8807 88.8944 51.5139 88.9944 51.1472C89.0945 50.7804 89.1445 50.4137 89.1445 50.0469C89.1445 49.5635 89.1778 49.1467 89.2445 48.7966C89.4445 47.8631 89.7196 46.9379 90.0697 46.021C90.4198 45.1041 90.7615 44.2122 91.0949 43.3453C91.1616 43.1786 91.2283 42.9869 91.295 42.7702C91.3617 42.5535 91.4117 42.3451 91.445 42.1451C91.4617 42.0117 91.47 41.8867 91.47 41.77C91.4867 41.6533 91.495 41.5366 91.495 41.4199C91.495 41.3032 91.495 41.1865 91.495 41.0698C91.5117 40.9531 91.5284 40.8281 91.545 40.6947C91.6117 40.4447 91.6451 40.2446 91.6451 40.0946C91.6451 39.9612 91.6367 39.8612 91.6201 39.7945C91.6034 39.7278 91.6117 39.6278 91.6451 39.4944C91.6451 39.3277 91.6701 39.161 91.7201 38.9943C91.7534 38.911 91.7784 38.8193 91.7951 38.7193C91.8284 38.6192 91.8618 38.5109 91.8951 38.3942C91.9285 38.1274 91.9451 37.9274 91.9451 37.794C91.9451 37.694 91.9451 37.594 91.9451 37.494C91.9618 37.3773 91.9785 37.2606 91.9951 37.1439C91.445 37.8274 90.9199 38.5109 90.4198 39.1944C89.9197 39.8612 89.4529 40.528 89.0194 41.1948C88.586 41.8617 88.1359 42.5285 87.6691 43.1953C87.219 43.8621 86.7606 44.529 86.2938 45.1958C86.1271 45.5459 85.927 45.8793 85.6937 46.196C85.4436 46.5128 85.2269 46.8295 85.0435 47.1462C84.9601 47.2796 84.8685 47.4213 84.7684 47.5713C84.6851 47.7047 84.5934 47.8381 84.4934 47.9714C84.3933 48.1048 84.2933 48.2465 84.1933 48.3965C84.1099 48.5299 84.0266 48.6633 83.9432 48.7966C83.8766 48.9467 83.8099 49.0967 83.7432 49.2467C83.6932 49.3801 83.6432 49.5135 83.5932 49.6468C83.4931 49.9469 83.3598 50.197 83.1931 50.397C83.1431 50.4804 83.0847 50.5637 83.018 50.6471C82.968 50.7304 82.9097 50.8138 82.843 50.8971C82.7763 50.9805 82.7096 51.0638 82.6429 51.1472C82.5929 51.2305 82.5429 51.3139 82.4929 51.3973L81.9678 51.8974C81.8844 51.9807 81.7927 52.0641 81.6927 52.1474C81.6094 52.2308 81.526 52.3141 81.4426 52.3975C81.3093 52.4475 81.1259 52.6392 80.8925 52.9726C80.6758 53.306 80.4591 53.6561 80.2424 54.0229C80.0256 54.373 79.8756 54.6147 79.7923 54.748C79.4922 55.4816 79.1588 56.165 78.792 56.7985C78.4253 57.432 78.0418 58.0655 77.6417 58.699C77.5751 58.799 77.5084 58.899 77.4417 58.9991C77.3917 59.0991 77.3333 59.2074 77.2667 59.3241C77.1333 59.5742 76.9916 59.7826 76.8416 59.9493C76.4915 60.4827 76.2164 60.9412 76.0164 61.3246C75.783 61.758 75.4912 62.1165 75.1412 62.3999C75.0745 62.5666 74.9911 62.7083 74.8911 62.825C74.7744 62.9583 74.7077 63.1 74.691 63.2501C74.5077 63.4501 74.2743 63.6001 73.9909 63.7002C73.6575 63.8169 73.3574 63.9502 73.0907 64.1003C72.8573 64.2336 72.5822 64.3503 72.2655 64.4503C71.9487 64.5504 71.607 64.517 71.2402 64.3503C71.1902 64.3336 71.1235 64.267 71.0402 64.1503C70.9735 64.0502 70.8901 64.0002 70.7901 64.0002C70.7068 63.7835 70.5984 63.6418 70.465 63.5751C70.3317 63.5085 70.19 63.4001 70.0399 63.2501C69.9899 63.2 69.9316 63.125 69.8649 63.025C69.8482 62.9917 69.8232 62.95 69.7899 62.9C69.7565 62.85 69.7232 62.8 69.6899 62.7499C69.4898 62.5166 69.2981 62.2582 69.1147 61.9748C68.9314 61.6914 68.7897 61.3663 68.6896 60.9995C68.6896 60.8995 68.6813 60.8078 68.6646 60.7245C68.648 60.6411 68.6396 60.5327 68.6396 60.3994C68.6229 60.2827 68.5813 60.141 68.5146 59.9743C68.4646 59.8409 68.4396 59.6659 68.4396 59.4492C68.4562 59.3158 68.4812 59.1908 68.5146 59.0741C68.5479 58.9407 68.5813 58.8157 68.6146 58.699L68.8397 57.9988C68.9063 57.7488 68.9814 57.5154 69.0647 57.2987C69.1481 57.0653 69.2314 56.8402 69.3148 56.6235C69.3981 56.4068 69.4815 56.1817 69.5648 55.9483C69.6482 55.7149 69.7232 55.4649 69.7899 55.1982C69.9066 54.7981 70.0399 54.4646 70.19 54.1979C70.3567 53.6978 70.4817 53.331 70.5651 53.0977C70.6651 52.8643 70.8068 52.4975 70.9902 51.9974C71.0902 51.4639 71.2152 50.9888 71.3653 50.5721L71.8404 49.2467C71.9737 48.7133 72.2155 47.9714 72.5655 47.0212C72.9156 46.0543 73.2574 45.0958 73.5908 44.1455C73.9242 43.1786 74.1242 42.4451 74.1909 41.945C74.291 41.7783 74.3743 41.5866 74.441 41.3699C74.4743 41.2532 74.5077 41.1532 74.541 41.0698C74.5744 40.9698 74.6077 40.8781 74.641 40.7947C74.7744 40.328 74.9661 39.7195 75.2162 38.9693C75.4829 38.2191 75.708 37.5606 75.8913 36.9938C76.1247 36.2937 76.3498 35.6102 76.5665 34.9434C76.7832 34.2765 76.9583 33.6764 77.0916 33.1429C77.225 32.8429 77.3167 32.4511 77.3667 31.9677C77.4167 31.4842 77.4417 31.0091 77.4417 30.5423C76.6248 31.1091 75.9497 31.6342 75.4162 32.1177C75.1495 32.3511 74.8828 32.5845 74.616 32.8179C74.3493 33.0512 74.0742 33.2763 73.7908 33.493C73.6575 33.7097 73.4824 33.8764 73.2657 33.9931C73.099 34.0932 72.9073 34.2765 72.6906 34.5433C72.5239 34.5599 72.3905 34.635 72.2905 34.7683C72.2071 34.8683 72.0738 34.96 71.8904 35.0434C71.5403 35.1767 71.1235 35.2434 70.6401 35.2434C70.5734 35.2434 70.4734 35.2268 70.34 35.1934C70.2067 35.1601 70.1066 35.1434 70.0399 35.1434C69.8732 35.1434 69.6732 35.1934 69.4398 35.2934L68.8397 35.5435C68.773 35.5768 68.7063 35.6102 68.6396 35.6435C68.5896 35.6769 68.5479 35.7102 68.5146 35.7435C68.4812 35.7769 68.4312 35.8102 68.3646 35.8436C68.3145 35.8769 68.2562 35.9103 68.1895 35.9436C68.0228 36.0103 67.8728 36.0186 67.7394 35.9686C67.5894 35.9019 67.4393 35.8602 67.2893 35.8436C67.1226 35.8102 67.0059 35.8019 66.9392 35.8186C66.8559 35.8352 66.7558 35.7769 66.6391 35.6435C66.7225 35.4601 66.8142 35.3268 66.9142 35.2434C67.0142 35.1601 67.1059 35.0267 67.1893 34.8433C67.4727 34.66 67.7227 34.4099 67.9395 34.0932C68.1228 34.0098 68.2562 33.9181 68.3395 33.8181C68.4062 33.7347 68.5229 33.6264 68.6896 33.493C68.8063 33.3763 68.923 33.2846 69.0397 33.2179C69.1564 33.1513 69.2731 33.0429 69.3898 32.8929C69.7732 32.7095 70.0983 32.4844 70.365 32.2177C70.6484 31.9343 70.9735 31.7093 71.3403 31.5426C71.7237 31.3092 71.9821 31.1341 72.1154 31.0174C72.2821 30.8841 72.4739 30.759 72.6906 30.6423C72.8573 30.509 72.9823 30.4006 73.0657 30.3173C73.149 30.2339 73.274 30.1256 73.4408 29.9922C73.6075 29.8588 73.7658 29.7338 73.9159 29.6171C74.0826 29.5004 74.2409 29.3837 74.391 29.267L75.2912 28.5919C75.6246 28.1251 75.9664 27.7917 76.3164 27.5916C76.6665 27.3916 77.0249 27.2082 77.3917 27.0415C77.5584 26.9415 77.7251 26.8498 77.8918 26.7664C78.0585 26.6831 78.2419 26.6581 78.4419 26.6914C78.5753 26.6914 78.667 26.6997 78.717 26.7164C78.767 26.7331 78.8587 26.7414 78.9921 26.7414C79.3088 26.7414 79.5505 26.8081 79.7172 26.9415C79.9173 27.1082 80.109 27.2415 80.2924 27.3416C80.4591 27.4749 80.5841 27.5666 80.6675 27.6166C80.7675 27.6833 80.8592 27.8083 80.9425 27.9917C81.1092 27.9917 81.2759 28.0751 81.4426 28.2418C81.476 28.3418 81.5093 28.4418 81.5427 28.5418C81.5927 28.6419 81.6427 28.7336 81.6927 28.8169C81.7927 28.9836 81.8261 29.2087 81.7927 29.4921C81.7761 29.5754 81.7594 29.6588 81.7427 29.7421C81.726 29.8088 81.7094 29.8838 81.6927 29.9672C81.676 30.0339 81.6594 30.1089 81.6427 30.1922C81.626 30.2756 81.6094 30.3589 81.5927 30.4423C81.4593 30.6757 81.3593 30.8757 81.2926 31.0424C81.2259 31.2091 81.1592 31.3758 81.0926 31.5426C81.0259 31.6592 81.0009 31.8093 81.0175 31.9927C81.0342 32.0927 81.0259 32.2594 80.9925 32.4928C80.9592 32.6595 80.9175 32.8262 80.8675 32.9929C80.8342 33.1596 80.7925 33.3263 80.7425 33.493C80.6925 33.6597 80.6425 33.8348 80.5924 34.0181C80.5591 34.1848 80.5258 34.3599 80.4924 34.5433C80.4257 34.6266 80.3924 34.735 80.3924 34.8683C80.3924 34.9517 80.3757 35.0601 80.3424 35.1934C80.1257 35.6102 79.8923 36.127 79.6422 36.7438C79.4088 37.3606 79.2255 37.8607 79.0921 38.2441C79.0254 38.4942 78.9504 38.7276 78.867 38.9443C78.7837 39.161 78.7087 39.3944 78.642 39.6445C78.6086 39.7778 78.5753 39.9195 78.542 40.0696C78.5086 40.2029 78.4753 40.353 78.4419 40.5197C78.4086 40.6864 78.3753 40.8448 78.3419 40.9948C78.3086 41.1448 78.2752 41.2949 78.2419 41.4449C78.1419 41.745 78.0502 42.045 77.9668 42.3451C77.8835 42.6452 77.8085 42.9453 77.7418 43.2453C77.7084 43.3787 77.5917 43.7538 77.3917 44.3706C77.2083 44.9874 77.0249 45.5959 76.8416 46.196C76.6749 46.7962 76.5915 47.1462 76.5915 47.2463C76.5582 47.3796 76.5498 47.4797 76.5665 47.5463C76.5832 47.6297 76.5415 47.713 76.4415 47.7964C76.4415 48.0631 76.3831 48.3049 76.2664 48.5216C76.1997 48.6383 76.1331 48.755 76.0664 48.8717C76.0164 48.9883 75.958 49.1134 75.8913 49.2467C75.8413 49.3801 75.7913 49.5135 75.7413 49.6468C75.708 49.7635 75.6746 49.8886 75.6413 50.0219C75.5579 50.322 75.4412 50.5637 75.2912 50.7471C75.1412 51.2139 74.9494 51.7557 74.7161 52.3725C74.4993 52.9893 74.3243 53.4727 74.1909 53.8228C73.8575 54.7397 73.5408 55.815 73.2407 57.0486C73.3074 57.1153 73.3824 57.1903 73.4658 57.2736C73.5491 57.357 73.6241 57.3987 73.6908 57.3987C73.8575 57.3987 74.0742 57.3153 74.341 57.1486C74.641 57.0152 74.8578 56.8819 74.9911 56.7485C75.0745 56.6652 75.1245 56.5818 75.1412 56.4985C75.1578 56.4484 75.1745 56.4068 75.1912 56.3734C75.2078 56.3234 75.2245 56.2817 75.2412 56.2484C75.4412 56.015 75.5579 55.8316 75.5913 55.6983C75.6246 55.5649 75.6913 55.4816 75.7913 55.4482C75.8747 55.0648 76.0164 54.7814 76.2164 54.598C76.4331 54.4146 76.5915 54.1479 76.6915 53.7978C76.8082 53.7145 76.8749 53.6061 76.8916 53.4727C76.9082 53.3394 76.9749 53.231 77.0916 53.1477C77.225 52.7976 77.4917 52.2808 77.8918 51.5973C78.2919 50.8971 78.5753 50.397 78.742 50.0969C78.7753 49.9803 78.8087 49.8719 78.842 49.7719C78.892 49.6552 78.9504 49.5552 79.0171 49.4718C79.0838 49.3884 79.1421 49.2968 79.1921 49.1967C79.2588 49.08 79.3255 48.9633 79.3922 48.8466L79.9923 47.9464C80.0923 47.7797 80.1924 47.6464 80.2924 47.5463C80.3924 47.4463 80.5091 47.313 80.6425 47.1462C80.7091 47.0129 80.7675 46.9045 80.8175 46.8212C80.8675 46.7378 80.9259 46.6461 80.9925 46.5461L81.5927 45.7459C81.726 45.5792 81.8344 45.4542 81.9178 45.3708L82.2928 44.9957C82.5596 44.6623 82.743 44.3789 82.843 44.1455C82.9597 43.8455 83.1264 43.5787 83.3431 43.3453C83.5098 42.9119 83.7099 42.5118 83.9432 42.1451C84.1766 41.7783 84.4267 41.4116 84.6934 41.0448C84.8935 40.6447 85.0935 40.2529 85.2936 39.8695C85.4936 39.4861 85.727 39.111 85.9937 38.7443C86.1938 38.3108 86.4438 37.9441 86.7439 37.644C86.9439 37.2439 87.0606 37.0439 87.094 37.0439C87.2774 36.7605 87.4607 36.4854 87.6441 36.2187C87.8275 35.9519 88.0109 35.6935 88.1942 35.4435C88.5277 34.9934 88.9111 34.4599 89.3445 33.8431C89.4279 33.7431 89.5029 33.6431 89.5696 33.543C89.6363 33.443 89.7029 33.343 89.7696 33.243C89.903 33.0262 90.0447 32.8429 90.1947 32.6928C90.4614 32.226 90.7282 31.826 90.9949 31.4925C91.2616 31.1591 91.5284 30.8591 91.7951 30.5923C92.1952 30.3089 92.4536 30.1589 92.5703 30.1422C92.687 30.1256 92.7953 30.0755 92.8954 29.9922C93.1788 29.8088 93.3538 29.6838 93.4205 29.6171L93.6455 29.392C93.7122 29.3254 93.7789 29.2503 93.8456 29.167C93.9123 29.0836 93.9456 28.9919 93.9456 28.8919L94.2707 28.5919C94.3707 28.4918 94.4457 28.4085 94.4957 28.3418C94.6624 28.1751 94.8041 28.0084 94.9208 27.8417C95.0375 27.675 95.2292 27.675 95.496 27.8417C95.646 27.925 95.7794 28.0751 95.8961 28.2918C96.0794 28.4752 96.2128 28.6752 96.2962 28.8919C96.3295 29.0753 96.3212 29.267 96.2712 29.4671C96.2211 29.7005 96.2295 29.9088 96.2962 30.0922C96.3628 30.2756 96.4295 30.459 96.4962 30.6423C96.5629 30.8257 96.6296 31.0091 96.6963 31.1925C96.8296 31.6092 96.863 32.0593 96.7963 32.5428C96.6629 32.7928 96.5712 33.0679 96.5212 33.368C96.5045 33.5347 96.4795 33.7014 96.4462 33.8681C96.4129 34.0181 96.3795 34.1765 96.3462 34.3432C96.2462 34.76 96.1461 35.0767 96.0461 35.2934C95.9461 35.5102 95.9127 35.7269 95.9461 35.9436C95.796 36.2603 95.7127 36.5437 95.696 36.7938C95.6794 37.0772 95.6293 37.3606 95.546 37.644C95.4293 38.1941 95.2959 38.6692 95.1459 39.0693C94.9792 39.5194 94.8792 39.9946 94.8458 40.4947C94.8292 40.9614 94.7291 41.5199 94.5457 42.1701C94.4624 42.4868 94.3874 42.7952 94.3207 43.0953C94.2707 43.3787 94.229 43.6454 94.1957 43.8955C94.129 44.1122 94.1206 44.3039 94.1707 44.4706C94.2207 44.6206 94.2457 44.7957 94.2457 44.9957C94.179 45.4625 94.1457 45.8376 94.1457 46.121C94.1457 46.2377 94.1373 46.3544 94.1206 46.4711C94.1206 46.5711 94.1123 46.6795 94.0956 46.7962C94.079 46.8795 94.0623 46.9712 94.0456 47.0712C94.029 47.1546 94.0123 47.2379 93.9956 47.3213C93.9789 47.4046 93.9623 47.4963 93.9456 47.5964C93.9289 47.6797 93.9123 47.7631 93.8956 47.8464C93.8289 48.0631 93.7789 48.2882 93.7456 48.5216C93.7289 48.7049 93.6622 48.8967 93.5455 49.0967C93.5122 49.2968 93.4788 49.4968 93.4455 49.6969C93.4121 49.8969 93.3788 50.1053 93.3455 50.322C93.2621 50.8054 93.1788 51.1805 93.0954 51.4473C93.1287 51.5806 93.1204 51.7057 93.0704 51.8224C93.0037 51.9891 92.962 52.1141 92.9454 52.1974C92.8787 52.3641 92.8537 52.5475 92.8704 52.7476C92.887 52.9476 92.862 53.131 92.7953 53.2977L92.7203 53.8728C92.687 54.1229 92.6453 54.3146 92.5953 54.448C92.4119 54.8814 92.3369 55.2148 92.3702 55.4482C92.3869 55.6649 92.3452 55.865 92.2452 56.0484C92.2785 56.3318 92.2202 56.6068 92.0702 56.8735C91.9201 57.157 91.8785 57.432 91.9451 57.6987C92.1118 57.5821 92.2452 57.432 92.3452 57.2486C92.3952 57.1653 92.4453 57.0819 92.4953 56.9986C92.5619 56.9152 92.6286 56.8319 92.6953 56.7485C92.762 56.6318 92.8787 56.4901 93.0454 56.3234C93.1121 56.2567 93.1788 56.1901 93.2454 56.1234C93.3121 56.0567 93.3788 55.9817 93.4455 55.8983C93.7122 55.6316 93.9456 55.3148 94.1457 54.9481C94.3457 54.5813 94.5291 54.2146 94.6958 53.8478C94.7625 53.7478 94.8375 53.5978 94.9208 53.3977C95.0042 53.1977 95.0792 53.0143 95.1459 52.8476C95.4793 52.3308 95.7794 51.764 96.0461 51.1472C96.1128 51.0138 96.1711 50.8888 96.2211 50.7721C96.2712 50.6554 96.3128 50.5304 96.3462 50.397C96.3962 50.247 96.4379 50.0969 96.4712 49.9469C96.5212 49.7969 96.5629 49.6468 96.5962 49.4968C96.6296 49.3468 96.6629 49.1967 96.6963 49.0467C96.7463 48.8967 96.7963 48.7466 96.8463 48.5966C96.8963 48.5132 96.9547 48.3882 97.0213 48.2215C97.088 48.0548 97.1464 47.9298 97.1964 47.8464C97.5465 47.1129 97.9132 46.4961 98.2966 45.996C98.5467 45.4625 98.9051 44.804 99.3719 44.0205C99.8553 43.2203 100.214 42.5618 100.447 42.045C100.564 41.9617 100.639 41.87 100.672 41.77C100.722 41.6366 100.781 41.5283 100.847 41.4449C100.947 41.0448 101.056 40.7364 101.172 40.5197C101.272 40.303 101.381 40.0446 101.497 39.7445C101.597 39.6611 101.672 39.5611 101.722 39.4444C101.772 39.3111 101.847 39.211 101.948 39.1444C102.064 38.861 102.206 38.5942 102.373 38.3442L102.848 37.594C103.064 37.2606 103.231 36.9772 103.348 36.7438C103.548 36.3437 103.665 36.127 103.698 36.0936C103.848 35.9269 103.998 35.7269 104.148 35.4935C104.298 35.2434 104.415 35.0767 104.498 34.9934C104.648 34.6433 104.765 34.4349 104.848 34.3682C104.932 34.2849 105.048 34.0598 105.198 33.6931C105.482 33.3096 105.632 33.0762 105.648 32.9929C105.665 32.9095 105.798 32.6928 106.048 32.3427C106.132 32.2594 106.182 32.1594 106.199 32.0427C106.232 31.9093 106.282 31.8093 106.349 31.7426C106.665 31.3258 106.857 31.0591 106.924 30.9424C107.007 30.7924 107.099 30.659 107.199 30.5423C107.365 30.3089 107.532 30.0755 107.699 29.8422C107.866 29.6088 108.032 29.3587 108.199 29.092C108.366 28.9253 108.532 28.7836 108.699 28.6669C108.882 28.5335 109.049 28.3918 109.199 28.2418C109.416 28.2418 109.649 28.0751 109.899 27.7417C110.316 27.6416 110.658 27.4583 110.925 27.1915C111.058 27.0582 111.2 26.9248 111.35 26.7914C111.516 26.6581 111.683 26.5247 111.85 26.3913C112.083 26.2246 112.308 26.0579 112.525 25.8912C112.742 25.7245 112.933 25.5245 113.1 25.2911C113.4 25.0243 113.742 24.8743 114.125 24.841C114.509 24.8076 114.801 24.9076 115.001 25.141ZM117.901 49.0967L117.851 49.4968C117.885 49.6135 117.851 49.8135 117.751 50.0969C117.585 50.297 117.485 50.5137 117.451 50.7471C117.384 50.8805 117.326 50.9972 117.276 51.0972C117.226 51.1972 117.184 51.3306 117.151 51.4973C117.084 51.6973 117.059 51.9307 117.076 52.1974C117.093 52.3308 117.093 52.4642 117.076 52.5975C117.076 52.7142 117.068 52.8309 117.051 52.9476C116.984 53.3144 116.934 53.6728 116.901 54.0229C116.868 54.373 116.834 54.7314 116.801 55.0981C116.801 55.4649 116.768 55.8816 116.701 56.3484C116.634 56.8152 116.568 57.232 116.501 57.5987C116.651 57.8655 116.734 58.1155 116.751 58.3489C116.768 58.599 116.884 58.8157 117.101 58.9991C117.768 58.899 118.301 58.7407 118.701 58.5239C119.102 58.3072 119.485 57.9988 119.852 57.5987C120.118 57.482 120.327 57.3653 120.477 57.2486C120.61 57.1319 120.802 56.9986 121.052 56.8485L121.452 56.4484C121.852 56.2317 122.077 56.0984 122.127 56.0484C122.161 56.015 122.202 55.9817 122.252 55.9483C122.319 55.915 122.386 55.8816 122.452 55.8483C123.019 55.4816 123.453 55.0981 123.753 54.698C124.003 54.498 124.211 54.2896 124.378 54.0729C124.511 53.8895 124.77 53.7145 125.153 53.5478C125.37 53.281 125.611 53.056 125.878 52.8726C126.145 52.6892 126.387 52.4642 126.603 52.1974C126.787 52.1974 126.92 52.2308 127.003 52.2975C127.053 52.3308 127.103 52.3641 127.153 52.3975C127.22 52.4308 127.287 52.4642 127.354 52.4975C127.454 52.7642 127.47 53.0393 127.404 53.3227C127.337 53.6061 127.22 53.8645 127.053 54.0979C126.887 54.3146 126.803 54.448 126.803 54.498C126.803 54.5313 126.787 54.5647 126.753 54.598C126.653 54.7147 126.528 54.8397 126.378 54.9731C126.228 55.0898 126.103 55.2148 126.003 55.3482C125.836 55.6483 125.703 55.7983 125.603 55.7983C125.503 55.7983 125.42 55.8316 125.353 55.8983C125.053 56.0817 124.845 56.2151 124.728 56.2984C124.595 56.4151 124.403 56.5485 124.153 56.6985C123.803 56.8819 123.586 57.0152 123.503 57.0986C123.419 57.182 123.353 57.232 123.303 57.2486C122.902 57.6987 122.511 58.0738 122.127 58.3739C121.777 58.6406 121.402 59.0157 121.002 59.4992C120.869 59.5992 120.735 59.6992 120.602 59.7992C120.469 59.8993 120.352 60.0326 120.252 60.1993C119.952 60.3994 119.71 60.5994 119.527 60.7995C119.343 60.9995 119.135 61.2329 118.902 61.4996C118.701 61.5997 118.485 61.7414 118.251 61.9247C117.968 62.1415 117.718 62.2998 117.501 62.3999C117.418 62.4499 117.276 62.5249 117.076 62.6249C116.909 62.7083 116.751 62.7499 116.601 62.7499C116.218 62.8166 115.851 62.7833 115.501 62.6499C115.184 62.5332 114.867 62.4332 114.55 62.3498C114.417 62.1498 114.25 61.9831 114.05 61.8497C113.75 61.483 113.534 61.0495 113.4 60.5494C113.267 60.0493 113.133 59.5158 113 58.949C112.7 59.1491 112.45 59.3658 112.25 59.5992C112.05 59.8493 111.75 60.066 111.35 60.2493C111.016 60.5661 110.675 60.8828 110.324 61.1996C109.974 61.4996 109.608 61.7914 109.224 62.0748C108.857 62.3582 108.482 62.6583 108.099 62.975C107.716 63.2751 107.332 63.5835 106.949 63.9002C106.682 64.1669 106.499 64.267 106.399 64.2003C106.098 64.567 105.565 64.6837 104.798 64.5504C104.531 64.417 104.231 64.3003 103.898 64.2003C103.665 64.1336 103.398 64.0336 103.098 63.9002C102.531 63.8002 102.056 63.5501 101.672 63.15C101.289 62.7499 100.964 62.2832 100.697 61.7497C100.597 61.4663 100.522 61.2162 100.472 60.9995C100.455 60.8828 100.43 60.7578 100.397 60.6244C100.364 60.4911 100.33 60.3494 100.297 60.1993C100.28 59.9159 100.23 59.6909 100.147 59.5242C100.08 59.3408 100.08 59.1658 100.147 58.9991C100.08 58.9157 100.064 58.8073 100.097 58.674C100.13 58.5073 100.147 58.3822 100.147 58.2989C100.114 57.8321 100.155 57.332 100.272 56.7985C100.389 56.2651 100.547 55.7816 100.747 55.3482C100.847 55.1815 100.981 55.0148 101.147 54.8481C101.231 54.748 101.281 54.648 101.297 54.548C101.314 54.4646 101.364 54.3813 101.447 54.2979C101.531 54.1979 101.631 54.0979 101.747 53.9979C101.914 53.8645 102.031 53.7645 102.098 53.6978C102.181 53.5811 102.264 53.4727 102.348 53.3727C102.448 53.256 102.556 53.156 102.673 53.0726C102.789 52.9893 102.898 52.8976 102.998 52.7976C103.098 52.6976 103.198 52.5975 103.298 52.4975C103.415 52.3808 103.506 52.2641 103.573 52.1474C103.656 52.0141 103.781 51.914 103.948 51.8474C104.081 51.614 104.231 51.4223 104.398 51.2722C104.565 51.1222 104.748 50.9638 104.948 50.7971C105.515 50.1136 106.215 49.5301 107.049 49.0467C107.899 48.5632 108.649 48.0298 109.299 47.4463C109.533 47.3463 109.733 47.2296 109.899 47.0962C110.066 46.9629 110.233 46.8295 110.4 46.6961C110.816 46.3294 111.266 46.2127 111.75 46.3461L113.05 46.6961C113.384 46.9962 113.709 47.2963 114.025 47.5964C114.342 47.8964 114.617 48.2298 114.851 48.5966C114.967 48.5799 115.092 48.5716 115.226 48.5716C115.359 48.5549 115.501 48.5549 115.651 48.5716C115.951 48.6049 116.268 48.5799 116.601 48.4966C116.701 48.4966 116.801 48.4716 116.901 48.4215C117.001 48.3715 117.084 48.3465 117.151 48.3465C117.651 48.5132 117.901 48.7633 117.901 49.0967ZM111.3 49.8469C110.4 50.2803 109.583 50.7888 108.849 51.3722C108.116 51.9557 107.415 52.5809 106.749 53.2477C106.665 53.331 106.574 53.4144 106.474 53.4978C106.39 53.5644 106.307 53.6395 106.224 53.7228C106.14 53.7895 106.057 53.8645 105.973 53.9479C105.89 54.0312 105.815 54.1146 105.748 54.1979C105.615 54.3646 105.49 54.5647 105.373 54.7981C105.257 55.0314 105.148 55.2482 105.048 55.4482C105.015 55.5149 104.982 55.5816 104.948 55.6483C104.915 55.6983 104.882 55.7399 104.848 55.7733C104.815 55.8066 104.782 55.8483 104.748 55.8983C104.715 55.9483 104.681 55.9983 104.648 56.0484C104.581 56.2151 104.556 56.3818 104.573 56.5485C104.59 56.6652 104.598 56.8485 104.598 57.0986V57.5987C104.598 57.6987 104.615 57.8655 104.648 58.0988C104.748 58.4656 104.798 58.8323 104.798 59.1991C104.798 59.4658 104.823 59.7909 104.873 60.1743C104.923 60.5578 105.048 60.8161 105.248 60.9495C105.465 61.0829 105.673 61.1162 105.873 61.0495C106.107 60.9662 106.299 60.9162 106.449 60.8995C107.616 59.9993 108.716 59.0574 109.749 58.0738C110.783 57.0903 111.7 55.9817 112.5 54.748C112.433 53.9312 112.425 53.0893 112.475 52.2224C112.525 51.4056 112.45 50.6471 112.25 49.9469C112.117 49.8636 111.958 49.8386 111.775 49.8719C111.641 49.8886 111.483 49.8802 111.3 49.8469ZM128.354 55.3982L128.654 55.6483C128.737 55.7816 128.712 55.965 128.579 56.1984C128.512 56.3151 128.454 56.4234 128.404 56.5235C128.37 56.6235 128.337 56.7152 128.304 56.7985C128.32 56.8652 128.337 56.9319 128.354 56.9986C128.37 57.0486 128.387 57.0903 128.404 57.1236C128.437 57.2236 128.42 57.332 128.354 57.4487C128.587 57.6321 128.737 57.8238 128.804 58.0238C128.887 58.2906 129.004 58.5156 129.154 58.699C129.354 58.9157 129.529 59.0824 129.679 59.1991C129.862 59.3158 130.037 59.4658 130.204 59.6492C130.388 59.5492 130.521 59.4992 130.604 59.4992C130.721 59.4992 130.854 59.4658 131.004 59.3991C131.288 59.0324 131.521 58.5656 131.705 57.9988C131.738 57.8655 131.771 57.7154 131.805 57.5487C131.838 57.382 131.855 57.232 131.855 57.0986C131.838 56.6652 131.705 56.2151 131.454 55.7483C131.204 55.2648 131.021 54.8147 130.904 54.398C130.771 54.1146 130.729 53.8145 130.779 53.4978C130.829 53.1477 130.821 52.8476 130.754 52.5975C130.738 52.4308 130.688 52.2975 130.604 52.1974C130.571 52.1474 130.538 52.0974 130.504 52.0474C130.471 51.9807 130.438 51.914 130.404 51.8474C130.338 51.564 130.313 51.2639 130.329 50.9471C130.363 50.6137 130.288 50.3303 130.104 50.0969C129.904 50.297 129.587 50.6804 129.154 51.2472C128.721 51.7973 128.287 52.3475 127.854 52.8976C127.437 53.4477 127.137 53.8145 126.953 53.9979C126.87 54.1146 126.778 54.2313 126.678 54.348C126.595 54.448 126.503 54.5397 126.403 54.623C126.303 54.7064 126.203 54.8064 126.103 54.9231C126.02 55.0231 125.937 55.1315 125.853 55.2482C125.32 55.915 124.92 56.4068 124.653 56.7235C124.403 57.0403 124.153 57.3653 123.903 57.6987C123.653 58.0322 123.253 58.5656 122.702 59.2991C122.519 59.5659 122.211 59.9993 121.777 60.5994C121.327 61.1996 120.902 61.783 120.502 62.3498C120.085 62.9 119.835 63.2667 119.752 63.4501C119.552 63.7835 119.293 64.0753 118.977 64.3253C118.66 64.5754 118.285 64.7004 117.851 64.7004C117.851 64.6837 117.818 64.5504 117.751 64.3003C117.685 64.0669 117.626 63.8169 117.576 63.5501C117.51 63.3001 117.468 63.1667 117.451 63.15C117.551 62.95 117.626 62.7499 117.676 62.5499C117.726 62.3665 117.868 62.1831 118.101 61.9998C118.168 61.783 118.36 61.4246 118.676 60.9245C118.993 60.4077 119.36 59.8576 119.777 59.2741C120.193 58.674 120.585 58.1238 120.952 57.6237C121.302 57.1236 121.535 56.7819 121.652 56.5985C121.869 56.3818 122.186 56.0067 122.602 55.4732C123.002 54.9398 123.403 54.4063 123.803 53.8728C124.219 53.3227 124.52 52.9309 124.703 52.6976C124.853 52.2475 125.161 51.689 125.628 51.0222C126.112 50.3387 126.62 49.6468 127.153 48.9467C127.704 48.2298 128.154 47.613 128.504 47.0962C128.67 46.8295 128.812 46.5961 128.929 46.3961C129.046 46.196 129.171 45.9793 129.304 45.7459C129.437 45.6126 129.554 45.4625 129.654 45.2958C129.721 45.0457 129.687 44.854 129.554 44.7207C129.437 44.5873 129.387 44.4123 129.404 44.1955C129.704 43.6287 129.996 43.2703 130.279 43.1203C130.579 42.9536 130.871 42.6785 131.154 42.2951C131.354 42.1617 131.513 42.0617 131.63 41.995C131.796 41.9117 131.955 41.795 132.105 41.6449C132.338 41.4116 132.68 41.3532 133.13 41.4699C133.597 41.5699 133.872 41.7116 133.955 41.895C133.972 41.995 133.972 42.1284 133.955 42.2951C133.938 42.3785 133.922 42.4618 133.905 42.5452C133.888 42.6285 133.872 42.7119 133.855 42.7952C133.822 42.9453 133.788 43.087 133.755 43.2203C133.722 43.3537 133.688 43.487 133.655 43.6204C133.622 43.7371 133.588 43.8705 133.555 44.0205C133.522 44.1539 133.488 44.2956 133.455 44.4456C133.388 44.8124 133.33 45.1624 133.28 45.4959C133.23 45.8293 133.338 46.146 133.605 46.4461C133.572 46.6128 133.58 46.8128 133.63 47.0462C133.68 47.2796 133.738 47.4963 133.805 47.6964C133.872 48.7633 134.063 49.8219 134.38 50.8721C134.697 51.9224 135.039 52.8809 135.405 53.7478C135.405 53.9145 135.43 54.0812 135.48 54.2479C135.53 54.4146 135.589 54.5813 135.655 54.748C135.756 55.815 135.655 56.8735 135.355 57.9238C135.205 58.4406 135.055 58.9574 134.905 59.4742C134.772 59.991 134.639 60.4994 134.505 60.9995C134.305 61.3329 134.138 61.7164 134.005 62.1498C133.888 62.5332 133.722 62.85 133.505 63.1C133.338 63.3668 133.188 63.6668 133.055 64.0002C132.922 64.3336 132.655 64.6004 132.255 64.8004C132.038 64.8671 131.813 64.8671 131.58 64.8004C131.363 64.7337 131.154 64.7337 130.954 64.8004C130.804 64.8171 130.654 64.8588 130.504 64.9255C130.388 64.9755 130.254 65.0005 130.104 65.0005C129.671 65.0838 129.312 65.0422 129.029 64.8754C128.779 64.7421 128.437 64.6337 128.004 64.5504C128.004 64.4503 127.954 64.3753 127.854 64.3253C127.754 64.2753 127.67 64.217 127.604 64.1503C127.487 63.6502 127.354 63.2667 127.203 63C127.087 62.7666 126.987 62.5166 126.903 62.2498C126.803 61.8664 126.753 61.508 126.753 61.1746C126.753 60.8078 126.67 60.4494 126.503 60.0993C126.37 59.7992 126.312 59.6159 126.328 59.5492C126.345 59.4825 126.353 59.3825 126.353 59.2491C126.353 58.8157 126.328 58.3406 126.278 57.8238C126.228 57.2903 126.437 56.8652 126.903 56.5485C127.087 56.4151 127.212 56.2401 127.278 56.0233C127.345 55.84 127.487 55.6483 127.704 55.4482C127.77 55.3815 127.879 55.3482 128.029 55.3482C128.145 55.3482 128.254 55.3649 128.354 55.3982ZM152.509 57.1986C153.076 57.0319 153.643 56.8819 154.21 56.7485C154.777 56.6152 155.36 56.5151 155.96 56.4484C156.494 56.4151 157.044 56.3151 157.611 56.1484L158.311 55.9233C158.428 55.89 158.536 55.8566 158.636 55.8233C158.753 55.7733 158.861 55.7316 158.961 55.6983C159.194 55.6316 159.419 55.5732 159.636 55.5232C159.853 55.4732 160.045 55.4315 160.211 55.3982C160.478 55.5982 160.603 55.7066 160.586 55.7233C160.57 55.7399 160.595 55.7816 160.661 55.8483L160.261 56.5485C160.128 56.6485 159.97 56.7152 159.786 56.7485C159.619 56.7652 159.444 56.8152 159.261 56.8986C159.094 56.9986 158.994 57.0653 158.961 57.0986C158.878 57.182 158.811 57.232 158.761 57.2486C158.611 57.282 158.503 57.2736 158.436 57.2236C158.336 57.157 158.261 57.1153 158.211 57.0986C157.394 57.6321 156.477 57.9988 155.46 58.1989C154.393 58.3989 153.41 58.649 152.509 58.949C152.176 59.1157 151.843 59.2908 151.509 59.4742C151.176 59.6575 150.826 59.8659 150.459 60.0993C150.192 60.6328 149.817 61.1496 149.334 61.6497C148.85 62.1498 148.358 62.5832 147.858 62.95C147.725 63.05 147.617 63.125 147.533 63.175C147.467 63.2084 147.408 63.2417 147.358 63.2751C147.325 63.3084 147.292 63.3334 147.258 63.3501C147.142 63.4001 147.017 63.4418 146.883 63.4751C146.75 63.5251 146.616 63.5668 146.483 63.6001C146.35 63.6335 146.216 63.6668 146.083 63.7002C145.95 63.7335 145.825 63.7668 145.708 63.8002C145.508 64.0002 145.341 64.1003 145.208 64.1003C144.991 64.1336 144.791 64.1003 144.608 64.0002C144.391 63.8835 144.174 63.8169 143.957 63.8002C143.791 63.5001 143.691 63.2917 143.657 63.175C143.624 63.0917 143.557 63.0333 143.457 63C143.374 62.6666 143.182 62.3498 142.882 62.0498C142.599 61.7664 142.374 61.4496 142.207 61.0996C142.14 60.9662 142.082 60.8245 142.032 60.6744C141.982 60.5244 141.957 60.3827 141.957 60.2493C141.99 59.8826 142.14 59.5659 142.407 59.2991C142.674 59.0324 142.941 58.8157 143.207 58.649C143.407 58.949 143.582 59.0657 143.732 58.9991C143.882 58.9324 144.007 58.8657 144.107 58.799C144.224 58.749 144.366 58.7073 144.533 58.674L144.858 58.599C145.358 58.4823 145.891 58.3822 146.458 58.2989C146.825 58.2655 147.108 58.2739 147.308 58.3239C147.558 58.3739 147.825 58.3656 148.108 58.2989C148.275 57.9988 148.484 57.7154 148.734 57.4487C148.984 57.182 149.225 56.9319 149.459 56.6985C149.625 56.2984 149.842 55.865 150.109 55.3982C150.376 54.9314 150.642 54.4813 150.909 54.0479L151.359 53.1477C151.426 53.081 151.484 53.0143 151.534 52.9476C151.584 52.8809 151.643 52.7809 151.709 52.6475C151.776 52.3808 151.801 52.1224 151.784 51.8724C151.768 51.6223 151.743 51.3472 151.709 51.0472C151.393 50.8638 151.076 50.6137 150.759 50.297C150.559 50.3803 150.367 50.3803 150.184 50.297C150.001 50.2136 149.809 50.2136 149.609 50.297C149.509 50.3137 149.409 50.3637 149.309 50.447C149.259 50.4804 149.2 50.5137 149.134 50.5471C149.084 50.5804 149.025 50.6137 148.959 50.6471C148.659 50.8138 148.333 50.9638 147.983 51.0972C147.633 51.2139 147.358 51.4139 147.158 51.6973C146.975 51.8807 146.808 52.0557 146.658 52.2224C146.508 52.3725 146.375 52.5142 146.258 52.6475C146.141 52.7809 146.016 52.9226 145.883 53.0726C145.766 53.206 145.641 53.3477 145.508 53.4978C145.341 53.6311 145.199 53.7478 145.083 53.8478C144.983 53.9312 144.916 54.0062 144.883 54.0729C144.833 54.1562 144.758 54.2479 144.658 54.348C144.558 54.448 144.458 54.548 144.358 54.648C144.258 54.7314 144.157 54.8147 144.057 54.8981C143.857 55.0648 143.674 55.2482 143.507 55.4482C143.407 55.5816 143.316 55.6733 143.232 55.7233C143.149 55.7733 143.057 55.865 142.957 55.9983C142.757 56.2151 142.582 56.4651 142.432 56.7485C142.299 56.9986 142.14 57.2653 141.957 57.5487L140.957 59.1491C140.773 59.6659 140.573 60.1827 140.357 60.6995C140.157 61.1996 139.94 61.6914 139.706 62.1748C139.473 62.6583 139.248 63.1584 139.031 63.6752C138.831 64.1919 138.64 64.7171 138.456 65.2505C138.389 65.6006 138.339 65.7923 138.306 65.8257C138.273 65.859 138.256 65.9007 138.256 65.9507C138.223 66.0841 138.198 66.2091 138.181 66.3258C138.148 66.4425 138.114 66.5592 138.081 66.6759C138.031 66.8926 137.956 67.101 137.856 67.301C137.789 67.5677 137.689 67.8428 137.556 68.1262C137.423 68.4096 137.289 68.6847 137.156 68.9514C136.939 69.4849 136.739 69.9933 136.556 70.4768C136.356 71.0269 136.156 71.552 135.956 72.0521C135.872 72.2355 135.797 72.4189 135.73 72.6023C135.664 72.7856 135.597 72.969 135.53 73.1524L135.155 74.2527C135.072 74.436 135.014 74.6361 134.98 74.8528C134.964 74.9528 134.947 75.0529 134.93 75.1529C134.914 75.2529 134.889 75.3529 134.855 75.4529C134.755 75.803 134.63 76.1865 134.48 76.6032C134.313 77.0367 134.222 77.4201 134.205 77.7535C133.722 78.2203 133.388 78.6204 133.205 78.9538C132.838 79.3205 132.455 79.6456 132.055 79.929C131.655 80.2124 131.204 80.4541 130.704 80.6542C130.388 80.6542 129.979 80.6208 129.479 80.5542C128.962 80.5041 128.704 80.2874 128.704 79.904C128.67 79.6039 128.679 79.2205 128.729 78.7537C128.779 78.287 128.887 77.8869 129.054 77.5534C129.187 77.1867 129.329 76.8366 129.479 76.5032C129.629 76.1698 129.771 75.8864 129.904 75.653C130.104 74.7861 130.354 74.0526 130.654 73.4525C130.738 73.2691 130.821 73.0941 130.904 72.9274C130.988 72.7606 131.071 72.5939 131.154 72.4272C131.338 72.0771 131.488 71.7354 131.605 71.402C131.688 71.1686 131.738 70.9185 131.755 70.6518C131.771 70.3851 131.871 70.1517 132.055 69.9516C132.288 69.3848 132.58 68.8514 132.93 68.3513C133.28 67.8511 133.638 67.351 134.005 66.8509C134.188 66.5675 134.339 66.2924 134.455 66.0257C134.589 65.7423 134.739 65.4673 134.905 65.2005C135.205 64.6837 135.455 64.1503 135.655 63.6001C135.856 63.0333 136.139 62.5166 136.506 62.0498C136.589 61.8664 136.672 61.6914 136.756 61.5247C136.839 61.3579 136.922 61.1912 137.006 61.0245L137.506 60.0493C137.556 59.9326 137.614 59.7576 137.681 59.5242C137.748 59.2908 137.806 59.1157 137.856 58.9991C137.956 58.849 138.056 58.699 138.156 58.5489C138.239 58.3822 138.323 58.2155 138.406 58.0488C138.706 57.382 139.015 56.7235 139.331 56.0734C139.648 55.4232 140.007 54.7814 140.407 54.1479C140.423 53.7978 140.515 53.4644 140.682 53.1477C140.765 52.9976 140.84 52.8393 140.907 52.6726C140.973 52.5058 141.04 52.3308 141.107 52.1474C141.207 51.864 141.282 51.5806 141.332 51.2972C141.399 50.9471 141.457 50.6637 141.507 50.447C141.607 50.147 141.724 49.9136 141.857 49.7469C142.04 49.5135 142.19 49.2634 142.307 48.9967C142.34 48.9467 142.374 48.8967 142.407 48.8466C142.44 48.7966 142.474 48.7383 142.507 48.6716C142.54 48.6049 142.574 48.5466 142.607 48.4966C142.64 48.4466 142.674 48.3965 142.707 48.3465C142.807 48.1465 142.882 47.9714 142.932 47.8214C142.966 47.7047 143.057 47.5463 143.207 47.3463C143.607 46.8795 143.866 46.6211 143.982 46.5711C144.066 46.5378 144.149 46.4961 144.233 46.4461C144.316 46.3794 144.408 46.3127 144.508 46.246C145.174 46.2127 145.591 46.3711 145.758 46.7211C145.925 47.0712 146.075 47.4296 146.208 47.7964C146.141 48.0631 146.075 48.3299 146.008 48.5966C145.941 48.8633 145.875 49.1801 145.808 49.5468C145.941 49.4301 146.075 49.3134 146.208 49.1967C146.358 49.0634 146.516 48.93 146.683 48.7966C147.017 48.5132 147.308 48.2465 147.558 47.9964C147.842 47.8297 148.117 47.6547 148.383 47.4713C148.667 47.2879 148.942 47.1046 149.209 46.9212C149.742 46.5378 150.342 46.2127 151.009 45.946C151.176 45.8793 151.351 45.8126 151.534 45.7459C151.718 45.6792 151.893 45.6459 152.059 45.6459C152.209 45.6459 152.351 45.6876 152.484 45.7709C152.651 45.8709 152.81 45.9293 152.96 45.946C153.143 46.1293 153.335 46.2877 153.535 46.4211C153.718 46.5378 153.91 46.7128 154.11 46.9462C154.243 47.1129 154.343 47.313 154.41 47.5463C154.443 47.663 154.477 47.7797 154.51 47.8964C154.543 48.0131 154.577 48.1298 154.61 48.2465C154.643 48.3632 154.677 48.4799 154.71 48.5966C154.76 48.7133 154.818 48.83 154.885 48.9467C155.002 49.1634 155.077 49.3801 155.11 49.5968C155.11 49.6969 155.093 49.8636 155.06 50.0969C155.027 50.3303 155.01 50.497 155.01 50.5971C155.01 50.7304 155.018 50.8305 155.035 50.8971C155.052 50.9638 155.06 51.0972 155.06 51.2972C155.043 51.614 154.91 52.0307 154.66 52.5475L154.06 53.7978C153.993 53.9312 153.926 54.0646 153.86 54.1979C153.81 54.3146 153.76 54.4313 153.71 54.548L153.36 55.2982C153.193 55.6649 153.043 55.9983 152.91 56.2984C152.776 56.5985 152.643 56.8986 152.509 57.1986Z" fill="url(#paint0_linear_204_210)"/>
<path d="M13.064 0.142534L13.0886 0.0599528L13.1699 0.0227012C13.2632 -0.0199361 13.3647 0.0056461 13.4427 0.0330237C14.3251 0.34091 19.482 3.55935 24.9988 8.08519C30.074 12.2484 36.9211 18.7032 41.1085 26.1131C43.56 30.4509 44.5061 34.3596 43.9262 37.7567C43.3104 41.3656 41.122 43.5145 39.3824 44.6886L37.7869 45.7654L39.075 44.3529C44.6923 38.9254 43.7363 31.2341 35.0163 22.0294C31.2207 18.0228 25.6738 13.2708 18.2967 7.48109C19.188 14.966 23.4329 20.9706 31.1359 25.7325L32.1498 26.3595L30.9954 26.1315C27.0378 25.3506 23.397 23.5603 20.1853 20.7992C18.623 25.3982 19.2971 29.6247 22.2934 34.0136C25.0859 34.0378 27.4583 34.5517 29.3581 35.5387C31.4554 36.6279 33.064 38.3348 34.1483 40.6134L34.9212 42.2377L33.7646 40.8271C30.609 36.978 27.9161 35.9287 21.6911 36.1684L21.6399 36.1702L21.591 36.1518C20.8078 35.8569 19.1907 33.3565 18.0601 30.6892C16.8591 27.8554 15.1747 22.5033 17.4044 18.5924L17.4255 18.5551L17.4556 18.5331C17.4794 18.4959 17.5543 18.2724 17.1957 17.1288C16.9368 16.3025 16.5279 15.2182 16.0544 13.962C14.3808 9.52095 12.0837 3.42471 13.0635 0.142534H13.064Z" fill="url(#paint1_linear_204_210)"/>
<path d="M24.905 32.3638C23.5653 30.9087 21.7261 28.911 21.5928 27.4897L21.5896 27.4537L21.6152 27.4268C21.6448 27.3958 21.6879 27.3896 21.7225 27.3882C22.1116 27.3698 24.6065 27.8088 27.4448 28.697C30.0556 29.5138 33.7089 30.9401 36.4835 33.1501C38.1078 34.444 39.083 35.8071 39.3891 37.2101C39.7141 38.701 39.2038 39.8729 38.715 40.5982L38.2666 41.2633L38.544 40.5165C39.868 37.5426 38.2985 34.7191 33.4922 32.5227C31.4002 31.5667 28.5153 30.5954 24.7605 29.5093" fill="url(#paint2_linear_204_210)"/>
<path d="M38.8138 35.3062C38.4498 34.2156 37.821 32.8297 36.9377 31.0869L38.8138 35.3062Z" fill="url(#paint3_linear_204_210)"/>
<path d="M35.944 32.1129C36.019 31.1268 36.1222 29.7736 36.5962 29.24L36.6083 29.2265H36.6271C36.6487 29.2265 36.6653 29.2404 36.6778 29.2526C36.8174 29.3886 37.5077 30.4504 38.1508 31.7906C38.7424 33.0235 39.4668 34.8452 39.605 36.6131C39.6858 37.6481 39.1288 39.7777 39.1118 39.0596C38.9394 31.8588 35.9445 32.1124 35.9445 32.1124L35.944 32.1129Z" fill="url(#paint4_linear_204_210)"/>
<path d="M7.76122 69.5767C4.0042 70.1373 0.349061 70.4635 0.044765 69.9761C-0.236192 69.5264 0.866093 64.4387 1.6569 60.9949C1.74801 60.5982 1.95177 60.2638 2.22645 60.0057C2.31621 59.9218 2.41315 59.8455 2.51638 59.7782C2.51638 59.7782 2.51728 59.7777 2.51773 59.7773C2.54241 59.7611 2.56755 59.7454 2.59268 59.7306C2.59627 59.7284 2.60031 59.7261 2.6039 59.7239C2.62589 59.7109 2.64833 59.6983 2.67077 59.6862C2.67661 59.683 2.68289 59.6799 2.68873 59.6768C2.70937 59.666 2.72957 59.6552 2.75066 59.6449C2.75829 59.6413 2.76637 59.6373 2.774 59.6337C2.79285 59.6247 2.81215 59.6157 2.83145 59.6072C2.84087 59.6031 2.85075 59.5991 2.86017 59.5946C2.87813 59.587 2.89608 59.5794 2.91448 59.5722C2.92525 59.5677 2.93647 59.5637 2.94724 59.5596C2.9643 59.5533 2.9809 59.547 2.99841 59.5408C3.01098 59.5363 3.02309 59.5322 3.03566 59.5277C3.05137 59.5224 3.06753 59.5174 3.08368 59.5125C3.0976 59.5084 3.11106 59.504 3.12497 59.4999C3.13978 59.4954 3.1546 59.4914 3.16941 59.4878C3.18467 59.4838 3.19993 59.4797 3.21518 59.4761C3.22865 59.473 3.24211 59.4698 3.25603 59.4667C3.27263 59.4631 3.28924 59.4591 3.30629 59.4555C3.31841 59.4528 3.33053 59.451 3.34265 59.4483C3.36105 59.4447 3.37945 59.4416 3.39785 59.4384C3.40817 59.4366 3.41805 59.4353 3.42837 59.4339C3.44902 59.4308 3.46921 59.4277 3.48986 59.4254C3.49704 59.4245 3.50422 59.4241 3.5114 59.4232C3.53519 59.4205 3.55898 59.4178 3.58276 59.416C3.58366 59.416 3.58501 59.416 3.58591 59.416C3.6447 59.4111 3.70394 59.4084 3.76364 59.4079C4.21065 59.4043 4.66934 59.5277 5.07731 59.7993C5.21241 59.889 5.3484 59.9784 5.48529 60.0663C8.94968 62.2983 12.7493 63.853 16.7662 64.6958C18.6369 65.0881 20.5098 65.3161 22.3719 65.3812C20.5704 66.2474 11.924 68.9542 7.76257 69.5767H7.76122Z" fill="url(#paint5_linear_204_210)"/>
<path d="M24.9436 63.9405C22.3616 64.0585 19.7185 63.8444 17.0723 63.2839C11.7005 62.1452 6.77474 59.6776 2.73183 56.1333L3.09716 54.2515C3.71248 51.0824 5.30622 48.0112 7.52381 45.3515C8.38957 44.3129 10.1144 44.3892 10.972 45.496C11.2885 45.9044 11.6161 46.3066 11.9545 46.702C14.5594 49.7454 17.6881 52.2605 21.2391 54.177C24.5298 55.9529 28.0198 57.1261 31.6166 57.6764C29.8451 60.1058 27.5445 62.27 24.9441 63.9405H24.9436Z" fill="url(#paint6_linear_204_210)"/>
<path d="M32.4864 56.3937C28.882 55.9211 25.3085 54.7672 21.9424 52.9432C17.9605 50.7853 14.559 47.8483 11.9383 44.3484C11.0681 43.1865 11.3051 41.6367 12.463 40.8293C15.4499 38.7463 18.8568 37.3339 22.2902 36.9264C22.2943 36.9259 22.2988 36.9255 22.3028 36.925C23.8413 40.1417 25.9332 43.068 28.5216 45.6271C30.4752 47.5592 32.6385 49.2091 34.9755 50.5564C34.5096 52.5702 33.6502 54.545 32.4868 56.3937H32.4864Z" fill="url(#paint7_linear_204_210)"/>
<path d="M35.2403 49.1059C30.3792 46.1738 26.3771 41.8822 23.849 36.8129C31.3617 36.6186 36.2174 41.8122 35.2403 49.1059Z" fill="url(#paint8_linear_204_210)"/>
<path d="M43.5429 50.4277C42.0282 56.5392 40.8491 55.4162 40.8491 55.4162C39.0471 57.4417 37.3327 56.2577 37.3327 56.2577C38.8165 56.5284 40.079 54.7125 40.079 54.7125C39.9708 53.8126 41.5802 51.5335 42.0757 50.8572C42.1345 50.7773 42.1058 50.666 42.0196 50.6072C41.289 50.1121 40.5004 46.5427 39.2514 45.2223C40.408 44.7892 41.3262 43.2982 41.3262 43.2982C42.6803 45.8224 42.3361 49.3415 43.4792 50.2477C43.5344 50.2912 43.5595 50.3621 43.5434 50.4277H43.5429Z" fill="url(#paint9_linear_204_210)"/>
<path d="M48.2707 50.2571C47.6908 52.7157 45.6972 52.4343 45.6972 52.4343C47.0728 52.0434 47.2945 49.9847 47.2945 49.9847C46.7847 49.2693 47.0841 46.6621 47.1877 45.8794C47.1998 45.7865 47.124 45.7039 47.0235 45.6904C46.1734 45.5755 43.9459 42.8885 42.2629 42.2835C43.3311 41.6708 43.4033 40.0322 43.4033 40.0322C45.7421 41.6291 46.7003 44.4791 48.0921 44.7713C48.159 44.7852 48.2133 44.8354 48.2303 44.8978C49.785 50.7126 48.2707 50.2576 48.2707 50.2576V50.2571Z" fill="url(#paint10_linear_204_210)"/>
<path d="M63.1457 25.3488C61.8384 22.4894 58.1285 21.1991 58.1285 21.1991C57.7761 20.4891 56.4153 22.2004 55.2251 24.221C54.1394 26.0638 53.2018 28.2042 53.2018 28.2042C53.2018 28.2042 53.4087 27.4587 53.7391 26.4471C52.5089 25.0077 50.7244 24.0212 48.7424 23.8713C45.8615 23.6537 43.4136 25.2663 42.4976 27.7289C44.2781 31.31 44.8624 34.3637 44.6326 36.9076C45.8399 38.5902 47.3807 39.8338 49.0332 39.9155C52.7086 40.0973 55.537 34.4678 55.463 30.8661C55.4396 29.7275 55.1236 28.6382 54.5887 27.6719C55.0613 27.32 55.5711 26.9179 56.2672 26.4529C57.2263 25.8125 58.1881 25.3488 58.6096 25.0544C58.7613 24.9485 58.9848 25.0163 59.0759 25.1953C59.7814 26.5772 62.3626 31.5043 62.1283 29.1337C61.8577 26.395 59.202 24.2434 59.202 24.2434C59.1136 23.559 57.5351 24.5589 56.0074 25.8623C55.4347 26.351 54.8683 26.8878 54.3993 27.3519C54.3252 27.2325 54.2485 27.1149 54.1672 27C54.6093 26.3672 55.0496 25.6576 55.73 24.7591C56.5437 23.6842 57.4265 22.8009 57.7793 22.3144C57.9063 22.1394 58.1765 22.125 58.3439 22.2834C59.6315 23.5056 64.2727 27.8155 63.1444 25.3479L63.1457 25.3488ZM52.5932 31.796C52.4572 33.3507 51.2715 35.2667 50.1319 35.0823C48.9884 34.8973 48.3304 32.6699 48.4704 31.1053C48.6105 29.5439 49.6495 28.4389 50.7881 28.6346C51.9223 28.8298 52.7292 30.2436 52.5932 31.7956V31.796Z" fill="url(#paint11_linear_204_210)"/>
<path d="M52.5932 31.7961C52.4573 33.3507 51.2715 35.2667 50.1319 35.0823C48.9884 34.8974 48.3304 32.6699 48.4704 31.1053C48.6105 29.5439 49.6495 28.4389 50.7881 28.6346C51.9223 28.8298 52.7292 30.2436 52.5932 31.7956V31.7961Z" fill="url(#paint12_radial_204_210)"/>
<path d="M54.5891 27.6724C55.0617 27.3205 55.5716 26.9184 56.2677 26.4534C57.2268 25.8129 58.1886 25.3493 58.61 25.0549C58.7617 24.949 58.9852 25.0167 59.0764 25.1958C59.7819 26.5777 62.363 31.5048 62.1287 29.1341C61.8581 26.3955 59.2025 24.2439 59.2025 24.2439C59.1141 23.5594 57.5356 24.5594 56.0078 25.8627C55.4351 26.3515 54.8687 26.8883 54.3997 27.3524C54.3257 27.233 54.2489 27.1154 54.1677 27.0005C54.6098 26.3677 55.0501 25.6581 55.7305 24.7596C56.5442 23.6846 57.427 22.8014 57.7797 22.3149C57.9067 22.1398 58.1769 22.1255 58.3443 22.2839C59.632 23.506 64.2732 27.816 63.1449 25.3484C61.8375 22.489 58.1276 21.1987 58.1276 21.1987C57.7752 20.4886 56.4144 22.2 55.2242 24.2205C54.1385 26.0634 53.2009 28.2038 53.2009 28.2038C53.2009 28.2038 54.2579 28.6831 54.5878 27.6715" fill="url(#paint13_linear_204_210)"/>
<path d="M51.4466 31.9341C51.5105 31.2208 51.1506 30.6057 50.6428 30.5602C50.135 30.5147 49.6715 31.056 49.6076 31.7693C49.5437 32.4825 49.9035 33.0976 50.4114 33.1431C50.9192 33.1886 51.3827 32.6473 51.4466 31.9341Z" fill="url(#paint14_linear_204_210)"/>
<path d="M51.2066 31.9125C51.2538 31.3852 50.9879 30.9304 50.6126 30.8968C50.2374 30.8632 49.8949 31.2634 49.8476 31.7908C49.8004 32.3181 50.0663 32.7729 50.4415 32.8065C50.8168 32.8401 51.1593 32.4399 51.2066 31.9125Z" fill="url(#paint15_radial_204_210)"/>
<path d="M51.0157 31.8955C51.0496 31.5165 50.8584 31.1897 50.5886 31.1655C50.3187 31.1413 50.0725 31.4289 50.0385 31.8079C50.0045 32.1869 50.1958 32.5137 50.4656 32.5379C50.7355 32.562 50.9817 32.2744 51.0157 31.8955Z" fill="url(#paint16_linear_204_210)"/>
<path d="M50.8615 31.8816C50.8847 31.6221 50.7539 31.3983 50.5692 31.3818C50.3845 31.3652 50.216 31.5622 50.1927 31.8217C50.1695 32.0811 50.3003 32.3049 50.485 32.3214C50.6697 32.338 50.8382 32.141 50.8615 31.8816Z" fill="url(#paint17_radial_204_210)"/>
<defs>
<linearGradient id="paint0_linear_204_210" x1="66" y1="46.5" x2="159" y2="46.5" gradientUnits="userSpaceOnUse">
<stop stop-color="#22D7FF"/>
<stop offset="1" stop-color="#9733EE"/>
</linearGradient>
<linearGradient id="paint1_linear_204_210" x1="12.8288" y1="22.883" x2="44.0918" y2="22.883" gradientUnits="userSpaceOnUse">
<stop stop-color="#6F6452"/>
<stop offset="0.03" stop-color="#817767"/>
<stop offset="0.09" stop-color="#9C9488"/>
<stop offset="0.14" stop-color="#B0A99F"/>
<stop offset="0.19" stop-color="#BCB6AE"/>
<stop offset="0.24" stop-color="#C1BBB3"/>
<stop offset="0.28" stop-color="#C3BEB6"/>
<stop offset="0.31" stop-color="#CCC8BF"/>
<stop offset="0.34" stop-color="#DCD9D0"/>
<stop offset="0.37" stop-color="#F2F1E8"/>
<stop offset="0.56" stop-color="#D0D2C7"/>
<stop offset="0.99" stop-color="#F2F1E8"/>
</linearGradient>
<linearGradient id="paint2_linear_204_210" x1="25.0513" y1="36.3121" x2="37.1329" y2="31.4333" gradientUnits="userSpaceOnUse">
<stop stop-color="#6F6452"/>
<stop offset="0.03" stop-color="#817767"/>
<stop offset="0.09" stop-color="#9C9488"/>
<stop offset="0.14" stop-color="#B0A99F"/>
<stop offset="0.19" stop-color="#BCB6AE"/>
<stop offset="0.24" stop-color="#C1BBB3"/>
<stop offset="0.28" stop-color="#C3BEB6"/>
<stop offset="0.31" stop-color="#CCC8BF"/>
<stop offset="0.34" stop-color="#DCD9D0"/>
<stop offset="0.37" stop-color="#F2F1E8"/>
<stop offset="0.56" stop-color="#D0D2C7"/>
<stop offset="0.99" stop-color="#F2F1E8"/>
</linearGradient>
<linearGradient id="paint3_linear_204_210" x1="36.3008" y1="32.4588" x2="39.4581" y2="33.931" gradientUnits="userSpaceOnUse">
<stop stop-color="#231F20"/>
<stop offset="0.5" stop-color="#231F20"/>
<stop offset="1" stop-color="#231F20"/>
</linearGradient>
<linearGradient id="paint4_linear_204_210" x1="34.8805" y1="32.8091" x2="40.8563" y2="35.5957" gradientUnits="userSpaceOnUse">
<stop stop-color="#6F6452"/>
<stop offset="0.03" stop-color="#817767"/>
<stop offset="0.09" stop-color="#9C9488"/>
<stop offset="0.14" stop-color="#B0A99F"/>
<stop offset="0.19" stop-color="#BCB6AE"/>
<stop offset="0.24" stop-color="#C1BBB3"/>
<stop offset="0.28" stop-color="#C3BEB6"/>
<stop offset="0.31" stop-color="#CCC8BF"/>
<stop offset="0.34" stop-color="#DCD9D0"/>
<stop offset="0.37" stop-color="#F2F1E8"/>
<stop offset="0.56" stop-color="#D0D2C7"/>
<stop offset="0.99" stop-color="#F2F1E8"/>
</linearGradient>
<linearGradient id="paint5_linear_204_210" x1="-0.000116426" y1="64.8107" x2="22.3706" y2="64.8107" gradientUnits="userSpaceOnUse">
<stop stop-color="#F7941D"/>
<stop offset="0.5" stop-color="#FFCA05"/>
<stop offset="1" stop-color="#FAAC18"/>
</linearGradient>
<linearGradient id="paint6_linear_204_210" x1="2.73228" y1="54.2946" x2="31.6166" y2="54.2946" gradientUnits="userSpaceOnUse">
<stop stop-color="#6F6452"/>
<stop offset="0.03" stop-color="#817767"/>
<stop offset="0.09" stop-color="#9C9488"/>
<stop offset="0.14" stop-color="#B0A99F"/>
<stop offset="0.19" stop-color="#BCB6AE"/>
<stop offset="0.24" stop-color="#C1BBB3"/>
<stop offset="0.28" stop-color="#C3BEB6"/>
<stop offset="0.31" stop-color="#CCC8BF"/>
<stop offset="0.34" stop-color="#DCD9D0"/>
<stop offset="0.37" stop-color="#F2F1E8"/>
<stop offset="0.56" stop-color="#D0D2C7"/>
<stop offset="0.99" stop-color="#F2F1E8"/>
</linearGradient>
<linearGradient id="paint7_linear_204_210" x1="11.4137" y1="46.6594" x2="34.9751" y2="46.6594" gradientUnits="userSpaceOnUse">
<stop stop-color="#F7941D"/>
<stop offset="0.5" stop-color="#FFCA05"/>
<stop offset="1" stop-color="#FAAC18"/>
</linearGradient>
<linearGradient id="paint8_linear_204_210" x1="23.849" y1="42.9567" x2="35.3651" y2="42.9567" gradientUnits="userSpaceOnUse">
<stop stop-color="#6F6452"/>
<stop offset="0.03" stop-color="#817767"/>
<stop offset="0.09" stop-color="#9C9488"/>
<stop offset="0.14" stop-color="#B0A99F"/>
<stop offset="0.19" stop-color="#BCB6AE"/>
<stop offset="0.24" stop-color="#C1BBB3"/>
<stop offset="0.28" stop-color="#C3BEB6"/>
<stop offset="0.31" stop-color="#CCC8BF"/>
<stop offset="0.34" stop-color="#DCD9D0"/>
<stop offset="0.37" stop-color="#F2F1E8"/>
<stop offset="0.56" stop-color="#D0D2C7"/>
<stop offset="0.99" stop-color="#F2F1E8"/>
</linearGradient>
<linearGradient id="paint9_linear_204_210" x1="37.3327" y1="49.9497" x2="43.5479" y2="49.9497" gradientUnits="userSpaceOnUse">
<stop stop-color="#F7941D"/>
<stop offset="0.5" stop-color="#FFCA05"/>
<stop offset="1" stop-color="#FAAC18"/>
</linearGradient>
<linearGradient id="paint10_linear_204_210" x1="42.2629" y1="46.238" x2="48.9318" y2="46.238" gradientUnits="userSpaceOnUse">
<stop stop-color="#F7941D"/>
<stop offset="0.5" stop-color="#FFCA05"/>
<stop offset="1" stop-color="#FAAC18"/>
</linearGradient>
<linearGradient id="paint11_linear_204_210" x1="42.4981" y1="30.4779" x2="63.3208" y2="30.4779" gradientUnits="userSpaceOnUse">
<stop stop-color="#F7941D"/>
<stop offset="0.5" stop-color="#FFCA05"/>
<stop offset="1" stop-color="#FAAC18"/>
</linearGradient>
<radialGradient id="paint12_radial_204_210" cx="0" cy="0" r="1" gradientUnits="userSpaceOnUse" gradientTransform="translate(50.53 31.8535) scale(2.7225)">
<stop stop-color="#231F20"/>
<stop offset="0.41" stop-color="#231F20"/>
<stop offset="1" stop-color="#231F20"/>
</radialGradient>
<linearGradient id="paint13_linear_204_210" x1="53.2018" y1="25.4027" x2="63.3208" y2="25.4027" gradientUnits="userSpaceOnUse">
<stop stop-color="#F7941D"/>
<stop offset="0.5" stop-color="#FFCA05"/>
<stop offset="1" stop-color="#FAAC18"/>
</linearGradient>
<linearGradient id="paint14_linear_204_210" x1="49.5085" y1="31.7604" x2="51.3451" y2="31.925" gradientUnits="userSpaceOnUse">
<stop stop-color="#D6B881"/>
<stop offset="1" stop-color="#7C6A46"/>
</linearGradient>
<radialGradient id="paint15_radial_204_210" cx="0" cy="0" r="1" gradientUnits="userSpaceOnUse" gradientTransform="translate(50.4265 31.8426) rotate(5.12) scale(0.98666 0.776898)">
<stop stop-color="#231F20"/>
<stop offset="0.41" stop-color="#231F20"/>
<stop offset="1" stop-color="#231F20"/>
</radialGradient>
<linearGradient id="paint16_linear_204_210" x1="49.9389" y1="31.799" x2="50.9148" y2="31.8864" gradientUnits="userSpaceOnUse">
<stop stop-color="#D6B881"/>
<stop offset="1" stop-color="#7C6A46"/>
</linearGradient>
<radialGradient id="paint17_radial_204_210" cx="0" cy="0" r="1" gradientUnits="userSpaceOnUse" gradientTransform="translate(50.4265 31.8426) rotate(5.12) scale(0.485063 0.381939)">
<stop stop-color="#231F20"/>
<stop offset="0.41" stop-color="#231F20"/>
<stop offset="1" stop-color="#231F20"/>
</radialGradient>
</defs>
</svg>
